<svg width="124px" height="124px" viewBox="0 0 48 48" xmlns="http://www.w3.org/2000/svg" xmlns:xlink="http://www.w3.org/1999/xlink"><title>Atom Logo</title><linearGradient id="a" gradientUnits="userSpaceOnUse" x1="-44" x2="-4" y1="-24" y2="-24"><stop offset="0" stop-color="#009467"/><stop offset="1" stop-color="#87d770"/></linearGradient><rect fill="url(#a)" height="40" rx="20" transform="matrix(0 -1 -1 0 0 0)" width="40" x="-44" y="-44"/><path d="m4.0117 23.5c-.0041.167-.0117.332-.0117.5 0 11.08 8.92 20 20 20s20-8.92 20-20c0-.168-.008-.333-.012-.5-.264 10.846-9.076 19.5-19.988 19.5s-19.724-8.654-19.988-19.5z" opacity=".15"/><path d="m24.509955 22.993684c-.828 0-1.5.675906-1.5 1.503906s.672 1.5 1.5 1.5 1.5-.672 1.5-1.5-.672-1.503906-1.5-1.503906z" fill="#fff"/><g fill="none" stroke="#fff" stroke-linecap="round" stroke-linejoin="round"><path d="m33.5 27.5s3.041987-1.0813 3-3c-.07589-3.467798-9.243942-4.931785-12.5-5-7.07019-.148121-12.331439 1.357955-12.5 4s3 3 3 3"/><path d="m30.5 17.5s1.120844-3.767011-.561792-4.69c-3.041146-1.668176-8.893022 5.640065-10.580127 8.425786-3.663372 6.048904-4.989696 11.358317-2.785899 12.825317 2.203798 1.467001 3.927818-.561103 3.927818-.561103"/><path d="m21.5 14.5s-2.168192-2.356074-3.808842-1.360362c-2.965256 1.799622.35092 10.471381 1.919873 13.325317 3.406819 6.197025 7.341743 10.000362 9.714102 8.825318 5.16592-1.979968-.825133-12.790273-.825133-12.790273"/></g></svg>