<?xml version="1.0" standalone="no"?>
<!DOCTYPE svg PUBLIC "-//W3C//DTD SVG 20010904//EN"
 "http://www.w3.org/TR/2001/REC-SVG-20010904/DTD/svg10.dtd">
<svg version="1.0" xmlns="http://www.w3.org/2000/svg" width="124px" height="124px"
 viewBox="0 0 1025.000000 1025.000000"
 preserveAspectRatio="xMidYMid meet">

<g transform="translate(0.000000,1025.000000) scale(0.100000,-0.100000)"
fill="#000000" stroke="none">
<path d="M4810 10234 c-380 -33 -623 -71 -915 -144 -911 -226 -1719 -683
-2385 -1350 -840 -839 -1345 -1900 -1477 -3100 -26 -234 -26 -806 0 -1040 132
-1200 637 -2261 1477 -3100 839 -839 1901 -1345 3100 -1477 234 -26 806 -26
1040 0 1200 132 2261 637 3100 1477 839 839 1345 1901 1477 3100 26 234 26
806 0 1040 -132 1200 -637 2261 -1477 3100 -836 837 -1898 1344 -3090 1476
-137 15 -736 28 -850 18z m-2169 -2017 c31 -16 51 -36 67 -67 27 -55 28 -84 1
-161 -18 -53 -20 -67 -10 -100 20 -65 48 -74 239 -74 l164 0 25 -29 c25 -30
27 -61 7 -133 -5 -18 2 -27 42 -53 57 -36 88 -45 214 -66 202 -32 263 -64 276
-145 4 -24 12 -39 21 -39 39 0 149 -49 233 -105 120 -79 127 -83 191 -96 75
-16 357 -122 464 -175 105 -51 191 -123 226 -188 23 -44 23 -46 6 -63 -14 -15
-34 -18 -105 -17 -77 0 -102 6 -222 48 -219 76 -295 73 -342 -17 -29 -55 -28
-101 6 -572 49 -685 79 -917 156 -1225 44 -173 134 -431 194 -555 90 -183 178
-310 415 -595 316 -380 502 -540 883 -757 240 -138 475 -233 763 -308 129 -34
315 -75 341 -75 7 0 78 65 156 143 153 154 232 207 307 207 45 0 105 -29 109
-53 6 -29 -34 -97 -108 -187 -87 -105 -90 -130 -18 -144 32 -6 75 -5 130 3 79
12 88 11 183 -14 115 -31 191 -46 208 -40 7 2 24 6 39 9 14 3 47 22 72 41 l46
35 38 -24 c52 -35 131 -44 318 -38 185 5 214 -3 241 -65 17 -43 10 -123 -15
-153 -24 -27 -116 -55 -260 -79 -140 -24 -220 -49 -268 -86 l-35 -26 -47 18
c-33 13 -72 18 -132 17 -75 -1 -106 -8 -260 -59 -156 -51 -188 -58 -295 -65
-66 -5 -165 -16 -220 -24 -314 -48 -757 -68 -1035 -47 -797 61 -1043 101
-1460 236 -284 93 -415 154 -698 324 -147 88 -399 276 -574 428 -162 141 -229
218 -489 563 -303 403 -558 873 -749 1384 -55 148 -115 362 -204 731 -64 269
-120 443 -183 575 -56 117 -71 188 -56 269 17 90 60 168 133 241 76 76 164
126 295 165 86 26 191 72 183 80 -8 9 -119 -27 -173 -55 -71 -37 -108 -38
-142 -4 -22 22 -25 32 -20 70 9 83 69 134 184 155 104 19 168 67 193 145 18
55 8 127 -23 164 -15 17 -27 37 -27 44 0 25 42 67 136 137 140 105 163 159 92
218 -127 107 -167 199 -119 277 44 73 198 100 292 51z"/>
<path d="M2480 8193 c-74 -38 -101 -148 -49 -197 l22 -21 -17 25 c-41 62 -12
81 112 73 105 -7 118 2 89 62 -30 63 -98 88 -157 58z"/>
<path d="M2610 7735 c-7 -8 -8 -15 -2 -15 5 0 15 7 22 15 7 8 8 15 2 15 -5 0
-15 -7 -22 -15z"/>
<path d="M2822 7733 c-12 -2 -27 -13 -32 -23 -8 -15 -6 -20 10 -25 38 -12 142
17 124 35 -12 11 -73 19 -102 13z"/>
<path d="M2840 7515 c0 -89 118 -225 194 -225 49 0 60 12 53 56 -12 77 -12 79
3 78 8 -1 26 -4 40 -8 22 -6 20 -2 -14 29 -30 27 -66 44 -150 70 -60 19 -113
35 -118 35 -4 0 -8 -16 -8 -35z"/>
<path d="M2695 7386 c-97 -26 -174 -53 -190 -69 -12 -11 27 -5 105 18 42 12
78 14 153 9 64 -5 97 -3 97 3 0 9 -63 64 -72 63 -2 -1 -43 -12 -93 -24z"/>
<path d="M3220 7290 c-36 -9 -121 -34 -188 -54 -68 -20 -130 -36 -137 -36 -23
0 -438 -111 -474 -127 -62 -28 -9 -27 80 2 225 71 383 78 485 21 l42 -23 -10
33 c-9 33 2 74 20 74 19 0 55 -36 92 -90 45 -66 68 -83 107 -78 42 5 66 48 66
117 l0 61 50 -47 c62 -58 73 -43 22 29 -37 51 -37 52 -20 80 35 60 -9 73 -135
38z"/>
<path d="M3870 7083 c-84 -6 -295 -35 -400 -55 -150 -28 -276 -60 -515 -133
-238 -73 -369 -107 -502 -131 -140 -25 -153 -43 -62 -89 55 -28 59 -36 27 -50
-36 -17 -32 -33 16 -62 52 -31 58 -54 21 -71 -34 -16 -70 -15 -126 2 -113 34
-153 75 -147 147 l5 46 -71 -13 c-148 -29 -263 -82 -308 -145 -49 -66 -40
-162 23 -260 l34 -54 5 120 c8 183 46 240 161 240 65 -1 99 -18 52 -28 -40 -8
-73 -42 -73 -77 0 -62 126 -160 206 -160 49 0 64 14 64 60 l0 37 105 17 c58 9
110 14 116 10 7 -4 8 -20 4 -41 l-6 -34 38 7 c61 11 148 46 293 119 189 95
253 116 375 121 187 7 493 59 655 110 41 12 98 28 125 34 161 36 292 198 244
303 -8 17 -22 27 -48 31 -36 6 -226 5 -311 -1z m-140 -63 c34 -36 47 -84 30
-105 -14 -17 -76 -20 -116 -5 -25 10 -26 13 -20 56 3 24 10 54 16 64 16 30 57
25 90 -10z m225 -10 c8 -12 -33 -38 -73 -46 -20 -4 -32 -13 -32 -23 0 -28 -18
-47 -30 -35 -15 15 9 64 46 93 28 22 78 28 89 11z m-619 -124 c18 -14 17 -16
-21 -32 -42 -17 -92 -20 -160 -9 -29 5 -54 1 -93 -14 -29 -12 -62 -21 -74 -21
-56 0 50 63 135 79 72 15 191 13 213 -3z m-376 -90 c0 -18 -17 -29 -30 -21 -8
5 -7 11 1 21 15 18 29 18 29 0z m-92 -62 c52 -34 37 -64 -32 -64 -41 0 -86 30
-86 56 0 35 69 40 118 8z m-195 -9 c-5 -16 -53 -21 -53 -7 0 11 42 31 52 25 4
-2 5 -10 1 -18z m56 -69 c57 -30 115 -116 93 -138 -10 -10 -43 3 -121 47 -24
14 -55 25 -68 25 -29 0 -30 19 -2 54 23 30 56 33 98 12z"/>
<path d="M4590 6866 c0 -9 24 -29 55 -47 30 -17 57 -39 60 -50 8 -23 31 -25
39 -3 16 41 -42 96 -116 109 -31 6 -38 4 -38 -9z"/>
<path d="M3905 6616 c-28 -16 -63 -25 -115 -30 -86 -7 -216 -36 -275 -62 -36
-15 -38 -18 -21 -28 10 -6 37 -24 60 -41 41 -30 41 -30 14 -33 -15 -2 -75 8
-133 22 -59 14 -108 26 -111 26 -2 0 -4 -9 -4 -19 0 -11 -11 -33 -24 -48 -23
-27 -28 -28 -105 -26 -78 3 -81 2 -69 -16 26 -42 -55 -106 -174 -138 -56 -15
-74 -15 -110 -6 -41 12 -44 11 -66 -13 -29 -34 -24 -59 34 -171 24 -46 44 -89
44 -96 0 -7 -14 -31 -30 -54 -29 -40 -33 -41 -103 -48 -112 -11 -147 -37 -147
-108 0 -32 -2 -33 -31 -29 -52 8 -63 -32 -29 -104 29 -59 61 -79 104 -63 28
10 41 9 77 -5 65 -26 109 -64 130 -112 17 -37 19 -63 17 -171 -3 -115 -5 -128
-21 -131 -49 -10 -122 125 -101 186 6 18 21 31 42 38 l33 10 -33 44 c-18 24
-45 52 -59 63 -35 25 -49 17 -128 -72 l-62 -70 71 -51 c102 -75 124 -132 63
-163 l-25 -14 45 -17 c79 -30 114 -81 164 -236 13 -38 26 -59 45 -69 25 -14
28 -13 67 22 45 40 51 42 84 26 12 -6 -14 22 -58 62 -122 111 -177 169 -172
182 3 8 24 11 61 10 l56 -2 -7 57 c-14 105 -10 145 13 157 12 6 28 16 36 23
22 18 25 8 17 -50 -10 -73 -10 -180 0 -197 14 -21 45 -5 105 56 65 64 90 66
126 8 12 -19 37 -53 56 -76 43 -51 54 -102 28 -130 -16 -18 -27 -20 -66 -16
-26 3 -65 15 -88 27 -82 42 -56 7 97 -131 66 -60 86 -99 86 -169 0 -54 14 -98
45 -132 17 -20 57 -23 96 -8 23 8 26 6 36 -25 17 -53 36 -62 49 -24 6 18 11
45 11 60 0 34 3 34 61 14 59 -21 95 -58 120 -124 33 -89 50 -121 65 -121 25 0
15 49 -26 141 -22 49 -40 95 -40 101 0 18 145 -129 187 -189 47 -68 51 -124
10 -159 -29 -25 -85 -44 -130 -44 -27 0 -25 -3 33 -52 94 -82 148 -117 188
-123 20 -3 47 -8 59 -11 12 -2 44 -26 71 -53 91 -91 119 -200 59 -229 -23 -11
-36 -11 -83 3 -31 9 -73 29 -95 45 -44 31 -163 84 -219 95 -32 7 -34 6 -20
-10 29 -35 116 -82 305 -164 237 -104 446 -207 539 -268 44 -28 123 -99 206
-184 l135 -138 -49 -12 c-79 -19 -204 3 -253 45 -30 26 -25 42 19 61 l30 12
-66 17 c-92 23 -136 22 -136 -4 0 -35 50 -98 94 -119 61 -30 155 -49 295 -60
68 -6 126 -13 129 -16 3 -3 -9 -25 -26 -49 -18 -24 -32 -46 -32 -49 0 -2 14
-7 31 -11 l30 -6 -27 -23 c-33 -29 -27 -42 32 -68 24 -11 46 -23 48 -28 3 -5
25 -2 48 6 60 21 87 8 138 -67 53 -79 77 -90 124 -61 20 13 45 34 56 49 23 29
90 77 90 65 0 -5 -18 -31 -41 -58 -22 -27 -36 -51 -30 -53 6 -2 34 11 63 28
146 90 264 81 553 -45 72 -31 156 -61 188 -66 32 -5 94 -21 138 -35 121 -38
167 -41 239 -14 93 35 84 44 -98 90 -209 52 -264 80 -241 121 7 14 0 16 -62
11 -141 -10 -262 47 -400 189 -42 44 -84 79 -93 79 -29 0 -210 62 -293 100
-120 56 -219 123 -298 204 -81 83 -136 172 -111 182 23 9 7 34 -88 133 -92 98
-145 171 -235 321 -35 58 -82 123 -105 145 -23 22 -57 59 -75 83 -18 23 -37
42 -42 42 -5 0 -9 -18 -9 -39 0 -22 -4 -43 -10 -46 -5 -3 -10 3 -10 15 0 73
-117 201 -171 187 -14 -4 -19 0 -19 13 0 36 20 70 54 92 41 26 43 36 17 70
-11 14 -27 53 -35 89 -8 35 -35 130 -60 210 -24 80 -57 209 -72 285 -33 167
-41 180 -82 135 -28 -31 -37 -46 -60 -101 -10 -24 -11 -23 -11 12 -1 50 17
131 34 154 11 15 16 17 26 7 7 -7 16 -13 20 -13 12 0 31 58 27 86 -3 25 -7 29
-36 29 -25 0 -31 3 -26 15 17 42 26 89 27 149 1 84 -8 115 -35 108 -14 -4 -18
-2 -14 9 3 8 11 74 17 147 17 204 -7 339 -59 320 -12 -5 -14 -2 -8 13 37 95
57 330 37 426 -22 103 -75 132 -156 84z m61 -283 c4 -14 -1 -58 -10 -97 -18
-80 -21 -126 -6 -126 9 0 40 90 40 116 0 20 22 64 32 64 13 0 9 -41 -10 -116
-24 -91 -49 -142 -80 -162 -24 -15 -26 -15 -50 13 -23 27 -24 34 -19 115 7
115 46 220 82 220 8 0 18 -12 21 -27z m-956 -183 c0 -5 -4 -10 -9 -10 -6 0
-13 5 -16 10 -3 6 1 10 9 10 9 0 16 -4 16 -10z m79 -114 c19 -27 55 -59 91
-81 64 -39 70 -48 43 -64 -17 -9 -16 -12 10 -38 62 -66 5 -58 -99 12 -45 32
-50 38 -46 68 2 18 -5 58 -16 90 -11 31 -19 57 -17 57 2 0 18 -20 34 -44z
m190 -10 c24 -51 -22 -63 -53 -14 -7 12 -6 21 4 32 17 22 32 16 49 -18z m521
-156 c0 -13 -1 -13 -10 0 -5 8 -10 22 -10 30 0 13 1 13 10 0 5 -8 10 -22 10
-30z m-650 -78 c36 -14 83 -37 105 -51 57 -36 23 -39 -57 -6 -35 15 -92 37
-127 49 -36 12 -67 28 -69 35 -6 19 66 6 148 -27z m705 -51 c5 -17 4 -21 -5
-16 -11 7 -21 29 -34 75 -7 23 -6 22 12 -5 11 -16 23 -41 27 -54z m-830 27
c68 -33 206 -135 213 -155 6 -20 -35 -15 -97 11 -31 12 -76 29 -101 37 -47 15
-110 83 -110 120 0 27 22 24 95 -13z m-116 -83 c87 -47 146 -98 138 -119 -7
-18 -57 -13 -92 9 -36 23 -135 120 -135 133 0 19 17 14 89 -23z m-74 -65 c4
-6 24 -18 46 -27 78 -31 113 -114 73 -171 -27 -39 -60 -28 -124 41 -116 124
-132 162 -43 102 83 -56 86 -46 17 60 -18 28 -18 28 3 16 12 -6 25 -16 28 -21z
m284 -156 c25 -32 28 -56 6 -47 -14 5 -45 52 -45 68 0 13 20 3 39 -21z m-79 2
c0 -16 -18 -31 -27 -22 -8 8 5 36 17 36 5 0 10 -6 10 -14z m589 -63 c1 -18 -3
-33 -9 -33 -5 0 -10 24 -9 53 0 38 3 47 9 32 5 -11 9 -35 9 -52z m381 15 c0
-61 -14 -94 -25 -59 -8 26 4 111 16 111 5 0 9 -24 9 -52z m-200 -26 c12 -42
19 -52 40 -54 24 -3 25 -6 28 -83 2 -59 7 -83 19 -92 28 -21 -4 -133 -38 -133
-23 0 -95 108 -110 165 -6 22 -9 78 -7 125 7 134 40 170 68 72z m256 3 c-3
-31 -13 -70 -20 -88 l-14 -32 -1 37 c-1 51 18 138 31 138 7 0 9 -19 4 -55z
m-783 -122 c49 -101 89 -158 72 -103 -4 14 -23 62 -42 108 -19 46 -32 86 -29
89 18 19 142 -103 222 -219 l28 -40 -28 -23 c-27 -21 -28 -25 -17 -55 16 -46
15 -47 -19 -15 l-30 29 -28 -27 c-34 -33 -51 -29 -86 21 -51 75 -117 274 -115
351 0 35 1 35 11 11 6 -14 33 -71 61 -127z m-231 0 c2 -18 -1 -33 -6 -35 -16
-5 -29 28 -22 57 9 34 24 22 28 -22z m168 -89 c0 -42 -22 -40 -53 5 -16 23
-16 26 0 44 17 18 18 18 35 -3 10 -12 18 -33 18 -46z m891 -131 c-9 -16 -10
-16 -11 -1 0 9 3 25 7 35 7 16 8 17 11 1 2 -10 -1 -25 -7 -35z m-18 -98 c-3
-9 -8 -14 -10 -11 -3 3 -2 9 2 15 9 16 15 13 8 -4z m67 -47 c-1 -34 -3 -39
-11 -26 -8 15 -3 68 7 68 2 0 4 -19 4 -42z m-678 -270 c3 -7 3 -19 1 -26 -6
-16 -33 4 -33 24 0 17 26 18 32 2z m253 -38 c10 -11 14 -20 8 -20 -5 0 -18 9
-28 20 -10 11 -14 20 -8 20 5 0 18 -9 28 -20z m539 -67 c21 -42 27 -84 17
-118 l-8 -30 -27 55 c-29 62 -35 120 -11 120 8 0 21 -12 29 -27z m110 -349 c8
-20 -2 -54 -14 -54 -15 0 -22 20 -16 46 7 28 21 31 30 8z m238 -298 c12 -22
-2 -39 -25 -31 -17 7 -48 75 -40 88 6 10 50 -29 65 -57z m67 -149 c0 -27 -2
-29 -9 -12 -12 28 -12 57 0 50 6 -3 10 -21 9 -38z m106 -94 c22 -26 50 -68 63
-92 22 -45 29 -91 13 -91 -16 0 -92 91 -112 133 -19 43 -25 97 -11 97 4 0 26
-21 47 -47z m985 -733 c0 -5 -4 -10 -10 -10 -5 0 -10 5 -10 10 0 6 5 10 10 10
6 0 10 -4 10 -10z"/>
<path d="M2835 6339 c-10 -15 3 -25 16 -12 7 7 7 13 1 17 -6 3 -14 1 -17 -5z"/>
<path d="M1987 6283 c-11 -10 -8 -20 8 -27 20 -7 42 2 49 20 4 10 -3 14 -23
14 -15 0 -31 -3 -34 -7z"/>
<path d="M2480 6130 c8 -5 45 -21 83 -36 37 -14 67 -30 67 -35 0 -6 -24 -7
-60 -3 -67 7 -80 -5 -30 -31 57 -30 142 -8 170 45 14 26 6 39 -36 56 -39 16
-219 20 -194 4z"/>
<path d="M2261 6046 c-17 -20 -10 -38 22 -55 23 -12 29 -12 52 3 18 12 25 24
23 39 -2 18 -11 23 -44 25 -27 2 -45 -2 -53 -12z"/>
<path d="M2412 5958 c7 -20 58 -23 58 -4 0 11 -10 16 -31 16 -20 0 -29 -4 -27
-12z"/>
<path d="M2691 5954 c0 -11 3 -14 6 -6 3 7 2 16 -1 19 -3 4 -6 -2 -5 -13z"/>
<path d="M1970 5926 c0 -9 5 -16 10 -16 6 0 10 4 10 9 0 6 -4 13 -10 16 -5 3
-10 -1 -10 -9z"/>
<path d="M2347 5913 c-14 -13 -6 -33 13 -33 13 0 20 7 20 20 0 19 -20 27 -33
13z"/>
<path d="M1910 5870 c0 -5 5 -10 11 -10 5 0 7 5 4 10 -3 6 -8 10 -11 10 -2 0
-4 -4 -4 -10z"/>
<path d="M2246 5761 c-4 -6 17 -22 49 -38 51 -25 56 -26 71 -11 15 15 14 17
-7 31 -32 20 -105 32 -113 18z"/>
<path d="M2034 5645 c-7 -18 19 -60 46 -75 17 -9 20 -8 20 10 0 53 -52 104
-66 65z"/>
<path d="M2262 5648 c-21 -21 -13 -35 28 -52 41 -16 70 -21 70 -11 0 4 -7 19
-15 34 -20 40 -59 53 -83 29z"/>
<path d="M2240 5544 c0 -7 71 -36 77 -31 9 10 -30 37 -53 37 -13 0 -24 -2 -24
-6z"/>
<path d="M2125 5398 c4 -18 14 -51 22 -73 8 -22 27 -81 43 -131 28 -86 69
-148 87 -130 14 14 -28 142 -82 254 -55 111 -83 143 -70 80z"/>
<path d="M2056 5333 c3 -16 30 -77 59 -138 29 -60 76 -166 105 -235 58 -140
121 -248 174 -299 20 -19 36 -32 36 -28 0 3 -15 35 -34 69 -19 35 -50 113 -71
175 -21 64 -53 138 -76 174 -22 34 -49 83 -59 108 -48 123 -153 258 -134 174z"/>
<path d="M2530 5150 c0 -5 9 -10 19 -10 11 0 23 5 26 10 4 6 -5 10 -19 10 -14
0 -26 -4 -26 -10z"/>
<path d="M2575 5000 c-11 -18 42 -35 71 -22 34 16 21 32 -26 32 -21 0 -42 -4
-45 -10z"/>
<path d="M2966 4993 c-12 -12 -6 -43 9 -43 8 0 15 9 15 19 0 21 -13 34 -24 24z"/>
<path d="M3170 4976 c0 -2 7 -6 15 -10 8 -3 15 -1 15 4 0 6 -7 10 -15 10 -8 0
-15 -2 -15 -4z"/>
<path d="M3135 4758 c31 -67 33 -114 5 -123 -24 -8 -66 5 -172 51 -82 36 -125
43 -134 20 -5 -13 19 -76 45 -116 5 -8 12 -22 14 -30 3 -9 38 -29 78 -45 41
-15 138 -61 216 -102 136 -70 193 -88 193 -60 0 24 -61 117 -91 139 -43 32
-65 80 -84 184 -19 103 -35 134 -70 134 l-24 0 24 -52z"/>
<path d="M2250 4748 c0 -21 102 -251 154 -348 40 -74 229 -367 423 -657 11
-16 12 -14 7 12 -4 25 -3 27 6 12 6 -9 9 -26 5 -35 -6 -22 96 -197 185 -317
74 -99 183 -212 258 -267 32 -23 104 -88 162 -143 112 -108 177 -145 265 -148
56 -3 56 19 0 81 -45 50 -148 112 -186 112 -16 0 -143 123 -163 157 -5 10 -5
23 1 33 9 14 6 16 -24 17 -59 2 -85 29 -190 198 -13 21 -29 31 -53 35 -81 14
-115 54 -164 194 -20 59 -47 124 -60 145 -23 37 -102 111 -117 111 -4 0 -13
17 -20 38 -17 52 -45 94 -140 208 -103 123 -147 191 -176 272 -29 80 -65 151
-119 235 -43 67 -54 78 -54 55z"/>
<path d="M2820 4480 c0 -5 11 -10 25 -10 14 0 25 5 25 10 0 6 -11 10 -25 10
-14 0 -25 -4 -25 -10z"/>
<path d="M2830 4291 c0 -9 32 -34 68 -55 21 -12 13 14 -13 39 -24 25 -55 33
-55 16z"/>
<path d="M3647 4293 c-14 -13 -6 -24 28 -39 49 -20 58 -18 44 9 -18 34 -54 49
-72 30z"/>
<path d="M3275 4250 c-3 -5 7 -24 24 -40 32 -33 30 -37 -9 -15 -34 20 -74 20
-66 0 3 -8 9 -22 13 -31 5 -14 0 -15 -35 -9 -24 4 -42 3 -42 -3 0 -5 23 -29
50 -54 58 -53 64 -72 20 -66 -16 3 -30 4 -30 3 0 -1 33 -27 73 -58 77 -59 113
-94 106 -102 -3 -2 -34 9 -68 26 -35 16 -66 27 -69 24 -12 -12 39 -49 142
-101 61 -31 129 -69 151 -84 57 -39 165 -92 177 -88 6 2 -7 21 -30 42 -35 33
-40 42 -35 69 4 28 -1 38 -47 81 -36 34 -50 55 -48 70 2 16 -11 31 -59 64 -35
23 -63 47 -63 52 0 6 24 10 53 10 l52 0 -40 23 c-59 34 -57 53 9 82 31 14 56
29 56 34 0 4 -48 22 -107 39 -142 40 -170 45 -178 32z"/>
<path d="M2991 4164 c12 -15 81 -54 95 -54 4 0 -1 9 -12 21 -34 38 -113 69
-83 33z"/>
<path d="M2859 4046 c19 -19 37 -34 39 -31 7 7 -28 45 -53 57 -12 7 -7 -3 14
-26z"/>
<path d="M3945 3780 c-3 -5 1 -13 10 -16 22 -9 29 1 11 15 -10 8 -16 9 -21 1z"/>
<path d="M4080 3695 c7 -8 16 -15 21 -15 5 0 6 7 3 15 -4 8 -13 15 -21 15 -13
0 -13 -3 -3 -15z"/>
<path d="M3460 3626 c14 -8 41 -15 60 -16 50 0 25 17 -35 25 -48 6 -49 5 -25
-9z"/>
<path d="M3800 3612 c0 -18 37 -41 93 -57 87 -25 91 -12 7 29 -75 36 -100 43
-100 28z"/>
<path d="M3450 3580 c0 -5 7 -10 16 -10 8 0 12 5 9 10 -3 6 -10 10 -16 10 -5
0 -9 -4 -9 -10z"/>
<path d="M3610 3581 c0 -12 55 -33 77 -29 17 4 17 5 -2 15 -30 16 -75 25 -75
14z"/>
<path d="M3477 3513 c-14 -13 -6 -34 29 -72 19 -22 49 -43 66 -46 16 -4 51
-16 77 -28 35 -16 67 -21 136 -21 150 -1 201 39 100 78 -28 10 -76 29 -108 42
-31 13 -84 30 -116 39 -60 15 -172 20 -184 8z"/>
<path d="M3940 3480 c0 -5 19 -22 43 -38 23 -16 51 -39 61 -51 35 -39 204 -78
221 -51 8 12 -32 36 -75 45 -19 4 -60 22 -90 41 -50 30 -129 64 -151 64 -5 0
-9 -4 -9 -10z"/>
<path d="M4125 3470 c3 -5 11 -10 17 -10 6 0 39 -13 73 -29 66 -32 193 -55
228 -42 19 7 18 9 -13 19 -19 6 -49 13 -66 17 -16 3 -52 17 -79 30 -35 18 -65
25 -107 25 -37 0 -57 -4 -53 -10z"/>
<path d="M5197 3353 c-16 -15 -5 -33 19 -33 20 0 25 4 20 16 -3 9 -6 18 -6 20
0 7 -26 5 -33 -3z"/>
<path d="M4160 3280 c0 -14 81 -57 123 -64 44 -8 50 7 10 28 -43 21 -133 46
-133 36z"/>
<path d="M3695 3255 c17 -7 32 -11 35 -9 7 8 -24 24 -45 23 -15 0 -13 -4 10
-14z"/>
<path d="M3985 3250 c3 -5 10 -10 16 -10 5 0 9 5 9 10 0 6 -7 10 -16 10 -8 0
-12 -4 -9 -10z"/>
<path d="M5330 3220 c-10 -6 -8 -11 8 -19 28 -15 42 -14 36 3 -7 19 -27 26
-44 16z"/>
<path d="M4159 3096 c28 -29 102 -63 161 -72 33 -5 41 -4 35 5 -11 19 -165 91
-194 91 l-24 0 22 -24z"/>
<path d="M4345 3110 c-3 -5 6 -12 20 -16 29 -7 41 -1 30 15 -8 14 -42 14 -50
1z"/>
<path d="M4020 3072 c0 -12 24 -22 52 -22 11 0 18 5 16 13 -5 14 -68 23 -68 9z"/>
<path d="M7385 2940 c-7 -12 2 -30 16 -30 5 0 9 9 9 20 0 21 -15 27 -25 10z"/>
<path d="M3998 2898 c-36 -13 -36 -28 0 -28 27 0 52 15 52 32 0 10 -18 9 -52
-4z"/>
<path d="M4306 2890 c16 -16 66 -17 71 -2 3 8 -8 12 -38 12 -30 0 -40 -3 -33
-10z"/>
<path d="M4460 2852 c0 -8 69 -42 86 -42 3 0 4 10 2 23 -2 18 -10 23 -45 25
-24 2 -43 -1 -43 -6z"/>
<path d="M4865 2811 c-19 -8 -18 -9 7 -21 22 -10 33 -10 58 0 16 7 30 16 30
21 0 11 -68 11 -95 0z"/>
<path d="M7083 2793 c-18 -7 -16 -20 3 -27 17 -6 44 9 44 25 0 10 -27 11 -47
2z"/>
<path d="M3960 2760 c19 -13 30 -13 30 0 0 6 -10 10 -22 10 -19 0 -20 -2 -8
-10z"/>
<path d="M6110 2729 c0 -5 5 -7 10 -4 6 3 10 8 10 11 0 2 -4 4 -10 4 -5 0 -10
-5 -10 -11z"/>
<path d="M4104 2706 c-8 -22 -2 -27 16 -16 12 7 12 12 3 21 -10 10 -14 9 -19
-5z"/>
<path d="M4823 2713 c15 -2 37 -2 50 0 12 2 0 4 -28 4 -27 0 -38 -2 -22 -4z"/>
<path d="M4004 2672 c12 -20 175 -113 321 -183 133 -64 194 -102 134 -84 -76
23 -223 87 -357 157 -144 75 -199 96 -135 50 153 -108 630 -314 883 -381 108
-28 563 -100 855 -135 321 -38 554 -43 790 -15 115 14 130 22 70 39 -49 14
-134 16 -365 11 -127 -3 -153 -1 -211 17 -56 19 -74 20 -125 12 -136 -22 -335
-9 -654 44 -139 23 -158 30 -468 155 -178 71 -378 158 -445 192 -67 34 -147
75 -177 91 -61 31 -128 48 -116 30z"/>
<path d="M4280 2651 c0 -15 29 -33 45 -27 28 10 17 36 -15 36 -16 0 -30 -4
-30 -9z"/>
<path d="M5793 2563 c-69 -48 -92 -70 -103 -97 -14 -37 12 -46 50 -17 38 28
46 27 59 -9 13 -38 28 -38 69 -1 24 23 32 38 32 65 0 88 -36 108 -107 59z"/>
<path d="M5673 2550 c-33 -20 -41 -30 -24 -30 10 0 70 49 61 50 -3 0 -20 -9
-37 -20z"/>
<path d="M5546 2523 c-6 -14 -5 -15 5 -6 7 7 10 15 7 18 -3 3 -9 -2 -12 -12z"/>
<path d="M6943 2526 c-36 -17 -62 -54 -41 -60 17 -6 355 -20 478 -20 77 -1
102 3 124 17 15 10 26 20 24 22 -11 11 -310 47 -423 51 -100 4 -137 1 -162
-10z"/>
<path d="M5980 2508 c-47 -32 -58 -54 -39 -73 14 -14 21 -11 71 24 31 22 58
47 62 56 9 24 -55 19 -94 -7z"/>
<path d="M7992 2518 c-18 -18 -15 -28 8 -28 21 0 25 7 12 27 -6 10 -11 10 -20
1z"/>
<path d="M7657 2493 c-12 -11 -7 -33 7 -33 12 0 26 20 26 36 0 7 -26 5 -33 -3z"/>
<path d="M8220 2493 c-94 -7 -115 -24 -47 -37 31 -6 189 6 264 20 96 18 -52
30 -217 17z"/>
<path d="M4595 2460 c-9 -14 45 -34 58 -21 5 5 6 14 3 20 -9 14 -53 14 -61 1z"/>
<path d="M6156 2429 c-23 -18 -36 -49 -20 -49 14 0 72 41 78 55 8 22 -27 19
-58 -6z"/>
<path d="M5342 2428 c-14 -14 -16 -38 -4 -38 12 0 32 23 32 37 0 16 -12 17
-28 1z"/>
<path d="M6025 2424 c-64 -33 -79 -64 -31 -64 23 0 70 52 64 70 -2 6 -16 3
-33 -6z"/>
<path d="M5450 2400 c0 -5 5 -10 11 -10 5 0 7 5 4 10 -3 6 -8 10 -11 10 -2 0
-4 -4 -4 -10z"/>
<path d="M4868 2358 c128 -61 418 -126 445 -99 12 12 -92 61 -131 61 -13 0
-105 18 -203 40 -98 22 -182 40 -186 39 -5 0 29 -19 75 -41z"/>
<path d="M6327 2381 c-39 -25 -43 -31 -21 -31 10 0 33 11 49 25 35 28 14 33
-28 6z"/>
<path d="M6218 2374 c-27 -14 -35 -33 -21 -47 7 -8 63 41 63 55 0 11 -11 9
-42 -8z"/>
<path d="M6441 2379 c-42 -17 -81 -50 -81 -70 0 -27 8 -24 64 19 67 50 75 74
17 51z"/>
<path d="M6705 2110 c-8 -13 20 -24 40 -16 8 3 15 10 15 16 0 13 -47 13 -55 0z"/>
</g>
</svg>
