<svg width="124px" height="124px" viewBox="0 0 48 48" xmlns="http://www.w3.org/2000/svg" xmlns:xlink="http://www.w3.org/1999/xlink"><linearGradient id="a"><stop offset="0" stop-color="#334545"/><stop offset="1" stop-color="#172525"/></linearGradient><linearGradient id="b"><stop offset="0" stop-color="#cfd5d5"/><stop offset="1" stop-color="#fcfcfc"/></linearGradient><linearGradient id="c"><stop offset="0"/><stop offset="1" stop-opacity="0"/></linearGradient><radialGradient id="d" cx="15.415" cy="35.357" gradientTransform="matrix(-.1877762 -.61010386 .62117041 -.17515593 22.206274 53.218094)" gradientUnits="userSpaceOnUse" r="7.579" xlink:href="#a"/><linearGradient id="e" gradientTransform="matrix(-.114852 -.389864 .389864 -.114852 31.490732 47.604576)" gradientUnits="userSpaceOnUse" x1="37.018" x2="30.865" y1="19.24" y2="14.64"><stop offset="0" stop-color="#ffa92d"/><stop offset="1" stop-color="#cd7223"/></linearGradient><linearGradient id="f" gradientTransform="matrix(.97383439 0 0 1.0390813 -3.062163 -1.879581)" gradientUnits="userSpaceOnUse" x1="32.35" x2="21.213" xlink:href="#c" y1="28.083" y2="30.293"/><linearGradient id="g" gradientUnits="userSpaceOnUse" x1="34.712001" x2="5.000001" y1="33.585" y2="8"><stop offset="0" stop-color="#6c5548"/><stop offset="1" stop-color="#bb9d71"/></linearGradient><radialGradient id="h" cx="22.000001" cy="21" gradientUnits="userSpaceOnUse" r="5" xlink:href="#b"/><radialGradient id="i" cx="13.500001" cy="20.5" gradientUnits="userSpaceOnUse" r="4.5" xlink:href="#b"/><radialGradient id="j" cx="3.496" cy="22.823" gradientTransform="matrix(1 0 0 1.0909092 .000001 -3.363638)" gradientUnits="userSpaceOnUse" r="5.5" xlink:href="#a"/><linearGradient id="k" gradientUnits="userSpaceOnUse" x1="15.263001" x2="31.000001" xlink:href="#c" y1="17.832" y2="34"/><radialGradient id="l" cx="23.5" cy="21.5" gradientUnits="userSpaceOnUse" r="2.5" xlink:href="#a"/><radialGradient id="m" cx="15" cy="21" gradientUnits="userSpaceOnUse" r="2" xlink:href="#a"/><linearGradient id="n" gradientUnits="userSpaceOnUse" x1="37.34" x2="38.347" y1="35.924" y2="33.509"><stop offset="0" stop-color="#6f8181"/><stop offset="1" stop-color="#b0b8b8"/></linearGradient><path d="m37.738383 7.0327891c-.314559-.048102-.59716.1231509-.767051.3183594-.169889.1952085-.287769.4371399-.390425.7421875-.177537.5275486-.829533 2.486072-3.180598 4.421875-2.351065 1.935806-6.40539 4.327003-13.432253 4.501619-5.339143.061045-8.607805-3.374375-9.968055-8.01683v2.745345l-.021691 7.710938.043382.101562s.382783.821224-.02169 1.927735c-.4044748 1.10651-1.9996148 2.546687-5.5642212 3.580078l-.4357803.125.082817.443359c.1977185 1.073719.9858362 2.174143 2.1493184 3.300781 1.1634821 1.126639 2.7212818 2.266392 4.5352591 3.296875 3.627955 2.060967 8.27469 3.689479 12.789431 3.765625 4.51474.07615 8.932001-1.448563 11.854772-5.671875 2.922773-4.223311 4.348195-11.550949 3.180597-22.0484933l-.002-.00391v-.00391c-.037105-.2882465-.102925-.5343472-.220819-.7499923-.117895-.2156454-.316433-.4382265-.630993-.4863283z" fill="url(#g)" fill-rule="evenodd"/><path d="m16.435548 16.998047-6.4453131 6.445312 12.4921881 12.492188c.358251.0249.71705.05648 1.074219.0625 4.51474.07615 8.932697-1.448563 11.855468-5.671875.403481-.583016.775613-1.232087 1.119141-1.933594l-11.195312-11.195312-4.351563 4.349609z" fill="url(#k)" opacity=".2"/><path d="m16.000002 29.001996c6.562573 1.400513 9.904569.101924 11.860499-1.509552-.516453-.711781-.8605-1.492444-.8605-1.492444s1.753513.679499 2.560494 1.790932c.80467 1.108251.29878 1.791072.08819 3.209068-.468814-1.245442-1.343873-1.712502-1.462342-2.207354-1.759006 2.59451-6.141431 2.48673-12.186341.20935z" fill="url(#f)" fill-rule="evenodd"/><path d="m38.992189 14.84375c-.08219 6.538492-1.42008 11.361294-3.580079 14.482422-2.922771 4.223312-7.340728 5.748025-11.855468 5.671875-4.514741-.076146-9.161108-1.704658-12.789063-3.765625-1.8139772-1.030483-3.3716745-2.170236-4.5351566-3.296875-.9851496-.953953-1.6972902-1.890574-2.0136719-2.806641l-.21875.0625.082031.44336c.1977185 1.073719.9869085 2.174143 2.1503907 3.300781 1.1634821 1.126639 2.7211794 2.266392 4.5351568 3.296875 3.627955 2.060967 8.274322 3.689479 12.789063 3.765625 4.51474.07615 8.932697-1.448563 11.855468-5.671875 2.26828-3.27759 3.627602-8.43479 3.580079-15.482422zm-29.0117197 3.619141-.00195.99414.042968.101563s.06494.168797.113282.417968c.150839-.837885-.113282-1.417968-.113282-1.417968l-.041015-.0957z" fill-rule="evenodd" opacity=".2"/><path d="m36.967774 35.400437.926394-1.844875c-3.44633-2.521335-9.880184-5.079843-9.880184-5.079843l-1.013758.557286s5.841507 5.181035 9.967548 6.367432z" fill="url(#e)"/><path d="m37.000001 32.000034-.483074.317687c-.447434.244909-.810437.661172-1.104875 1.142591-.336916.791414-.469962 1.286319-.412051 2.059551l.7-.119863s3.654923 1.048538 5.385122 1.6l.202389-.389889.712489-1.379051-5-2.561438z" fill="url(#n)"/><path d="m47 42c-1.246985-4.051583-1.689265-7.268529-4.948048-6.98227-2.626127.230686-2.80998 3.832334-.09627 4.826197 2.614164.957405 5.044315 2.156073 5.044315 2.156073z" fill="url(#d)"/><g fill-rule="evenodd"><path d="m13.5 16c-1.111289 0-2.22859.367747-3.081479 1.125962-.8528888.758215-1.4187492 1.915061-1.4185204 3.374038-.0002288 1.458976.5656316 2.615822 1.4185204 3.374037.852889.758216 1.97019 1.125962 3.081479 1.125963 1.111291 0 2.230516-.367747 3.083406-1.125963.852887-.758215 1.416823-1.915061 1.416595-3.374037.000228-1.458977-.563708-2.615823-1.416595-3.374038-.852889-.758215-1.972115-1.125962-3.083406-1.125962z" fill="url(#i)"/><path d="m5.1011379 19.000187c-.2440479-.0022-.4833734.01494-.716009.05181-.6203616.09837-1.1947404.332781-1.6899353.689006-1.98077905 1.424897-2.50243678 4.654223-.055818 8.03584 2.4466194 3.381618 5.6835966 3.90647 7.6643764 2.481573 1.980779-1.424898 2.504362-4.654224.05774-8.035841-1.6055916-2.219184-3.5520187-3.207507-5.2603541-3.222393z" fill="url(#j)"/><path d="m21.999075 16c-1.236949 0-2.480112.408944-3.426561 1.250231-.946449.841289-1.572513 2.123381-1.572513 3.750696 0 1.627313.626064 2.907553 1.572513 3.748842.946449.841287 2.189612 1.250231 3.426561 1.250231s2.480112-.408944 3.426561-1.250231c.946449-.841289 1.574365-2.121529 1.574365-3.748842 0-1.627315-.627916-2.909407-1.574365-3.750696-.946449-.841287-2.189612-1.250231-3.426561-1.250231z" fill="url(#h)"/><path d="m23.5 19c-.612591 0-1.231888.202543-1.708984.626628s-.791016 1.077266-.791016 1.873372c0 .796105.31392 1.449288.791016 1.873373s1.096393.626627 1.708984.626627 1.231888-.202542 1.708984-.626627.791016-1.077268.791016-1.873373c0-.796106-.31392-1.449287-.791016-1.873372s-1.096393-.626628-1.708984-.626628z" fill="url(#l)"/><path d="m15 19c-.490073 0-.98551.162034-1.367187.501302s-.632813.861813-.632813 1.498698c0 .636884.251136 1.15943.632813 1.498698s.877114.501302 1.367187.501302.98551-.162034 1.367187-.501302.632813-.861814.632813-1.498698c0-.636885-.251136-1.15943-.632813-1.498698s-.877114-.501302-1.367187-.501302z" fill="url(#m)"/></g></svg>