<?xml version="1.0" encoding="utf-8"?>
<svg width="124px" height="124px" version="1.1" id="katman_1" xmlns="http://www.w3.org/2000/svg" xmlns:xlink="http://www.w3.org/1999/xlink" x="0px" y="0px"
	 viewBox="0 0 2211 2500" style="enable-background:new 0 0 2211 2500;" xml:space="preserve">
<style type="text/css">
	.st0{fill:#664F44;}
	.st1{fill:#132134;}
	.st2{fill:#90694C;}
	.st3{fill:#2F83C1;}
	.st4{fill:#FCE9CD;}
	.st5{fill:#4D9ED7;}
	.st6{fill:#FFFFFF;}
	.st7{fill:#F2D2AC;}
	.st8{fill:#E9B784;}
	.st9{fill:#FFD250;}
</style>
<g>
	<path class="st0" d="M1919.8,2059c-6.3,6.3-14.2,9.5-23.7,9.5c-9.5,0-17.4-3.2-23.7-9.5c-6.3-6.3-9.5-14.2-9.5-23.7
		c0-9.5,3.2-18.2,10.3-24.5c6.3-6.3,14.2-8.7,22.9-8.7c9.5,0,17.4,3.2,23.7,9.5c6.3,6.3,9.5,14.2,9.5,23.7
		C1930.1,2044.8,1926.9,2052.7,1919.8,2059 M1877.1,2015.6c-5.5,5.5-7.9,11.9-7.9,19c0,7.9,2.4,14.2,7.9,19.8
		c5.5,5.5,11.9,7.9,19.8,7.9c7.9,0,14.2-2.4,19.8-7.9c5.5-5.5,7.9-11.9,7.9-19.8c0-7.1-2.4-14.2-7.9-19c-5.5-5.5-11.9-8.7-19.8-8.7
		C1889,2007.7,1882.6,2010,1877.1,2015.6 M1907.1,2051.9c-3.2,2.4-6.3,3.2-9.5,3.2c-4.7,0-9.5-1.6-13.4-5.5s-5.5-8.7-5.5-14.2
		c0-5.5,1.6-10.3,4.7-14.2c3.2-4,7.9-5.5,13.4-5.5c3.2,0,6.3,0.8,9.5,2.4c4,2.4,7.1,6.3,7.9,12.6h-8.7c-0.8-2.4-1.6-4.7-3.2-5.5
		c-1.6-0.8-3.2-1.6-4.7-1.6c-2.4,0-4.7,0.8-6.3,3.2c-1.6,2.4-2.4,5.5-2.4,9.5c0,4,0.8,7.1,2.4,8.7c1.6,1.6,4,3.2,6.3,3.2
		c2.4,0,4-0.8,5.5-1.6l2.4-4.7h7.9C1912.7,2046.4,1910.3,2049.5,1907.1,2051.9 M1990.9,1701c0-3.2-0.8-6.3-0.8-9.5
		c0-2.4-0.8-4-0.8-5.5c-0.8-4.7-1.6-8.7-3.2-13.4c-3.2-8.7-7.9-17.4-14.2-24.5c-6.3-7.1-13.4-12.6-20.5-16.6
		c-7.9-4-15.8-6.3-22.1-7.9c-2.4,0-4-0.8-5.5-0.8c8.7-37.9-2.4-67.2-9.5-80.6l1.6-1.6c9.5-9.5,17.4-18.2,24.5-26.9l1.6-1.6
		c5.5-7.9,8.7-15.8,11.1-22.9c1.6-6.3,3.2-11.9,3.2-17.4v-4.7v-3.2v-7.1c-0.8-11.9-2.4-26.9-10.3-43.5c-4-7.9-9.5-16.6-16.6-24.5
		c-7.1-7.9-15.8-15-26.1-20.5c-0.8-0.8-1.6-0.8-2.4-1.6c-21.3-30.8-45-55.3-66.4-73.5c-11.1-9.5-21.3-17.4-30-23.7
		c-8.7-6.3-15.8-11.1-19.8-14.2c-9.5-7.1-16.6-11.1-19.8-12.6c-7.9-4.7-13.4-8.7-16.6-11.1c-2.4-2.4-4-3.2-4.7-4c0,0,0-0.8-0.8-2.4
		c-0.8-2.4-0.8-5.5-0.8-11.1c0-7.9,0-19.8,0.8-35.6c1.6-25.3,4-59.3,7.1-105.9c0.8-15,0.8-29.2,0.8-41.9c-0.8-21.3-4-40.3-7.9-57.7
		c-0.8-4-2.4-7.9-3.2-11.9c-0.8-3.2-1.6-4.7-2.4-6.3c-0.8-2.4-1.6-4.7-3.2-7.9c-0.8-1.6-0.8-3.2-2.4-4.7c-1.6-4-3.2-7.9-5.5-11.9
		l-0.8-0.8l-0.8-2.4l-0.8-1.6c-4-7.1-8.7-13.4-13.4-19c-2.4-11.1-6.3-26.9-13.4-45c-6.3-15.8-14.2-33.2-26.1-50.6
		c-4-6.3-8.7-11.9-13.4-17.4l1.6-1.6c2.4-2.4,57.7-60.8,101.9-136.7c81.4-141.5,54.5-227.6,17.4-275l-0.8-1.6l-0.8-1.6
		c-35.6-39.5-84.6-63.2-143.8-71.1c-124.1-15.8-264.7,45.8-301.9,63.2l-68-74.3c-6.3-6.3-12.6-12.6-19.8-17.4
		c-7.1-4.7-15-9.5-22.9-13.4c-15.8-7.1-33.2-11.9-52.2-14.2c-37.1-4.7-79.8,0-125.6,11.9c-68.7,17.4-145.4,52.2-226,100.4
		S652.3,473,570.9,547.3C471.3,637.4,389.1,733,329,824.7c-30,45-54.5,89.3-72.7,132c-18.2,41.9-30,82.2-34.8,118.5
		c-3.2,26.9-3.2,52.2,2.4,75.1c2.4,10.3,5.5,19.8,10.3,29.2c5.5,11.9,12.6,22.9,21.3,32.4l70.3,73.5l7.9,7.9l-0.8,0.8l-2.4,4.7
		c-1.6,2.4-2.4,4.7-4,6.3l-2.4,4.7c-0.8,2.4-2.4,4.7-3.2,7.1l-2.4,4.7c-0.8,2.4-2.4,4.7-3.2,7.1c-0.8,1.6-1.6,3.2-1.6,4.7l-2.4,7.1
		c-0.8,1.6-0.8,3.2-1.6,4.7c-0.8,2.4-1.6,4.7-2.4,7.9c0,0.8-0.8,1.6-0.8,2.4s-0.8,1.6-0.8,2.4c-0.8,2.4-1.6,5.5-2.4,7.9
		c0,1.6-0.8,3.2-0.8,4.7c0,0.8-0.8,2.4-0.8,3.2c0,1.6-0.8,3.2-0.8,4.7c0,1.6-0.8,3.2-0.8,4.7c-0.8,3.2-0.8,6.3-1.6,10.3
		c0,0.8,0,1.6-0.8,3.2v0.8c0,2.4-0.8,4.7-0.8,6.3c0,3.2-0.8,7.1-0.8,10.3v39.5c0,1.6,0,3.2,0.8,4.7c0,1.6,0,4,0.8,6.3v2.4
		c0,1.6,0.8,4,0.8,5.5s0.8,3.2,0.8,5.5c0,0.8,0,1.6,0.8,2.4c0,0.8,0.8,2.4,0.8,3.2v1.6c0,1.6,0.8,3.2,1.6,6.3c0,0.8,0,0.8,0.8,1.6
		c0.8,1.6,0.8,3.2,0.8,4l0.8,1.6c0,0.8,0,0.8,0.8,1.6l0.8,1.6v2.4c0,0.8,0,0.8,0.8,1.6l0.8,1.6c0,1.6,0.8,2.4,0.8,4
		c0.8,1.6,0.8,3.2,1.6,6.3v-0.8v0.8c0,0.8,0,0.8,0.8,1.6c0.8,2.4,1.6,4,1.6,4.7c0.8,1.6,1.6,3.2,2.4,6.3l0.8,0.8
		c0.8,1.6,0.8,3.2,1.6,4l0.8,1.6c0,0.8,0.8,1.6,0.8,2.4s0.8,2.4,1.6,3.2l0.8,1.6c0.8,0.8,0.8,2.4,1.6,3.2c0.8,0.8,0.8,1.6,0.8,2.4
		c0.8,1.6,1.6,3.2,2.4,5.5l0.8,0.8c0.8,0.8,0.8,1.6,1.6,2.4s0.8,2.4,1.6,3.2c0.8,0.8,1.6,2.4,2.4,4.7l0.8,0.8
		c0.8,0.8,0.8,1.6,1.6,2.4c0.8,1.6,1.6,2.4,1.6,3.2c0.8,0.8,1.6,2.4,2.4,4v0.8c0.8,0.8,0.8,1.6,1.6,2.4c0.8,1.6,1.6,2.4,2.4,3.2
		c0.8,0.8,1.6,2.4,3.2,4.7c0.8,0.8,1.6,1.6,1.6,2.4c0.8,1.6,1.6,2.4,2.4,3.2c0.8,0.8,1.6,2.4,2.4,4c0.8,0.8,1.6,2.4,2.4,3.2
		c0.8,1.6,1.6,2.4,3.2,3.2l2.4,2.4l0.8,0.8c1.6,1.6,2.4,3.2,4,4.7l1.6,1.6l2.4,2.4l4.7,4.7l1.6,1.6l2.4,2.4l0.8,0.8
		c1.6,1.6,4,3.2,5.5,5.5l0.8,0.8c0.8,0.8,1.6,0.8,2.4,2.4c2.4,2.4,4.7,4,7.1,6.3l1.6,0.8l0.8,0.8l1.6,0.8c2.4,1.6,4,3.2,6.3,4.7
		l0.8,0.8c0.8,0.8,1.6,0.8,1.6,0.8l1.6,1.6c1.6,1.6,3.2,2.4,4.7,4l1.6,0.8l1.6,1.6l0.8,0.8c1.6,0.8,4,2.4,5.5,3.2
		c0.8,0.8,1.6,1.6,3.2,1.6l1.6,0.8l0.8,0.8h0.8c3.2,1.6,5.5,3.2,7.9,4.7l1.6,0.8l9.5,4.7h0.8l1.6,0.8l4.7,2.4c0.8,0,1.6,0.8,2.4,0.8
		c0.8,0.8,1.6,0.8,3.2,1.6h0.8c1.6,0.8,3.2,1.6,4.7,1.6h0.8c1.6,0.8,3.2,1.6,5.5,2.4h0.8l1.6,0.8c0.8,0,1.6,0.8,2.4,0.8h0.8
		c2.4,0.8,4.7,1.6,7.9,2.4h0.8c4,1.6,7.9,2.4,11.9,3.2h0.8c3.2,0.8,7.1,1.6,10.3,2.4h3.2c3.2,0.8,6.3,1.6,9.5,1.6h3.2
		c2.4,0,4,0.8,6.3,0.8c0,0.8,0.8,1.6,0.8,2.4c5.5,15,11.1,30,17.4,44.3c93.2,258.4,351.7,459.1,646.4,496.3
		c294.8,36.4,610.1-159.6,738.1-424.4c5.5-10.3,10.3-19.8,15-30c12.6-13.4,22.9-26.9,29.2-41.1
		C1989.3,1733.4,1991.7,1716.1,1990.9,1701 M354.3,1598.3h0.8H354.3"/>
</g>
<path class="st1" d="M1738.8,408.2c-14.2-15.8-30.8-27.7-49-36.4c-3.2-1.6-6.3-2.4-10.3-3.2c-1.6-0.8-3.2-2.4-4.7-3.2
	c-15.8-6.3-32.4-10.3-49.8-12.6c-85.3-11.1-183.3,20.5-238.6,42.7c-3.2,1.6-6.3,2.4-9.5,4c-4.7,2.4-9.5,4-14.2,6.3
	c-7.9,3.2-15.8,7.1-24.5,11.1c-1.6,0.8-2.4,0.8-4,1.6l-15-17.4l-7.1-7.9l-6.3-7.1l-2.4-3.2l-57.7-66.4l-4.7-5.5l-6.3-7.1h-0.8
	l-16.6,4l-19,4c-10.3-4.7-22.9-7.9-37.1-10.3c-28.4-4-64.8,0-105.9,10.3c-41.1,10.3-87.7,28.4-136.7,52.9
	c-98.8,49-207.8,124.1-313.7,220.5c-37.1,33.2-71.1,68-102.7,101.9c-30.8,33.2-58.5,67.2-83.8,99.6c-51.4,67.2-90.1,132-115.4,190.4
	c-16.6,38.7-26.9,74.3-30.8,105.1c-3.2,22.1-2.4,41.9,1.6,57.7c1.6,5.5,3.2,9.5,4.7,14.2c4,9.5,8.7,17.4,15,24.5l64,67.2l7.1,7.1
	l0.8-0.8c1.6-2.4,4-4.7,6.3-6.3l0.8-0.8l2.4-2.4c1.6-2.4,4-4,5.5-6.3c1.6-1.6,2.4-2.4,4-3.2c1.6-0.8,2.4-2.4,4-3.2l1.6-1.6
	c1.6-0.8,2.4-2.4,4-3.2c1.6-1.6,4-3.2,5.5-4.7c0.8-0.8,2.4-1.6,3.2-2.4h0.8c2.4-1.6,4-3.2,6.3-4.7c1.6-0.8,2.4-1.6,4-3.2
	c2.4-1.6,4-3.2,6.3-4.7c1.6-0.8,2.4-1.6,4-2.4c2.4-1.6,4.7-3.2,7.1-4c1.6-0.8,2.4-1.6,4-2.4c2.4-1.6,4.7-2.4,7.1-4
	c1.6-0.8,2.4-1.6,4-2.4l1.6-0.8c2.4-0.8,4-2.4,6.3-3.2c0.8-0.8,2.4-0.8,3.2-1.6c1.6-0.8,3.2-1.6,5.5-2.4l4.7-2.4l1.6-0.8l11.9-4.7
	c1.6-0.8,2.4-0.8,4-1.6c1.6-0.8,2.4-0.8,4-1.6l1.6-0.8c0.8,0,1.6-0.8,2.4-0.8c1.6-0.8,3.2-0.8,5.5-1.6h1.6c2.4-0.8,4-0.8,6.3-1.6
	c1.6-0.8,4-0.8,5.5-1.6c2.4-0.8,4.7-0.8,7.1-1.6c0.8,0,1.6-0.8,3.2-0.8c0.8,0,2.4,0,3.2-0.8c2.4-0.8,4.7-0.8,7.1-0.8
	c2.4,0,4-0.8,6.3-0.8c1.6,0,3.2-0.8,4.7-0.8h6.3c7.9,0,17.4,0,26.9,0.8h1.6c9.5,0.8,20.5,2.4,31.6,4.7c2.4,0.8,5.5,0.8,7.9,1.6
	c0.8-0.8,0.8-2.4,1.6-3.2c6.3-10.3,11.9-21.3,18.2-31.6c35.6-59.3,73.5-111.4,112.2-157.3c13.4-15.8,26.9-30,40.3-44.3
	c56.1-58.5,112.2-103.5,162.8-138.3c11.1-7.9,22.9-15,33.2-22.1c15-9.5,29.2-17.4,42.7-25.3c11.1-6.3,21.3-11.9,31.6-16.6
	c16.6-8.7,31.6-15.8,45-21.3l11.9-4.7c5.5-2.4,11.1-4.7,15.8-6.3c-4-0.8-8.7-0.8-12.6-0.8h-15.8c-4,0-8.7,0-12.6,0.8
	c-7.9,0.8-16.6,1.6-25.3,2.4c-3.2,0.8-5.5,0.8-8.7,1.6c21.3-11.1,42.7-19,62.4-25.3c13.4-4,26.9-7.1,39.5-9.5
	c17.4-3.2,34-5.5,49-6.3c10.3-0.8,19.8-0.8,28.4-0.8c8.7,0,17.4,0.8,24.5,0.8c26.1,1.6,41.9,5.5,41.9,5.5c-4-5.5-8.7-9.5-13.4-13.4
	c-9.5-7.1-19.8-11.9-29.2-15.8c-4-1.6-7.1-2.4-10.3-4c-2.4-0.8-4.7-1.6-6.3-1.6c4.7-0.8,8.7-1.6,12.6-1.6c4.7-0.8,8.7-0.8,13.4-1.6
	c37.1-3.2,70.3,0,94.8,4c29.2,5.5,47.4,12.6,47.4,12.6c-4-7.9-10.3-15-17.4-21.3c-4.7-4-10.3-7.9-15-11.1c10.3,2.4,19,4.7,28.4,7.9
	c23.7,7.1,43.5,15.8,59.3,22.9l14.2,7.1c1.6,0.8,2.4,1.6,3.2,1.6c14.2,7.9,22.1,13.4,22.1,13.4c-2.4-8.7-7.1-16.6-13.4-23.7
	c-1.6-1.6-3.2-4-4.7-5.5h0.8c0.8,0,1.6,0.8,3.2,0.8c0.8,0,2.4,0.8,4,1.6c6.3,2.4,15.8,6.3,26.9,11.9c0.8,0,0.8,0.8,1.6,0.8l4.7,2.4
	c4,2.4,7.9,4,11.9,7.1l11.9,7.1c2.4,1.6,4,2.4,6.3,4c4,3.2,8.7,6.3,12.6,10.3c4.7,4,8.7,7.9,12.6,11.9l2.4,2.4
	c3.2,3.2,6.3,6.3,8.7,9.5c5.5,6.3,10.3,13.4,15,20.5c5.5,8.7,9.5,19,13.4,29.2c0,0.8,0,1.6,0.8,1.6c2.4-2.4,7.1-7.1,12.6-13.4
	C1684.3,688,1821.8,514.1,1738.8,408.2"/>
<g>
	<path class="st2" d="M1943.5,1706.6c0,0,1.6-11.9-4.7-22.9c0-0.8-0.8-1.6-0.8-1.6l-0.8-0.8l-2.4-2.4c-1.6-1.6-3.2-3.2-5.5-4.7
		c-0.8-0.8-2.4-1.6-4-2.4c-4-1.6-7.9-3.2-13.4-4c-4-0.8-7.9-0.8-12.6-0.8h-6.3v1.6c0,0.8,0.8,1.6,0.8,3.2c0,0.8,0,1.6,0.8,1.6
		c0.8,2.4,1.6,6.3,2.4,9.5c0,0,0,0.8-0.8,2.4v0.8c-2.4,5.5-8.7,18.2-22.9,34c-2.4,3.2-4.7,5.5-7.9,8.7
		c-39.5,41.1-124.9,98.8-305,131.2c-60.8,8.7-117.7,9.5-165.2,3.2c-71.1-8.7-124.1-31.6-149.4-62.4c-2.4-2.4-4-5.5-6.3-7.9
		c-1.6-2.4-2.4-4-4-6.3c-0.8-0.8-0.8-1.6-1.6-2.4c-10.3-19-15-39.5-15-59.3c0-24.5,7.9-47.4,20.5-64.8c10.3-14.2,23.7-25.3,40.3-30
		c7.9-2.4,16.6-4,25.3-3.2c1.6,0,4,0,7.1,0.8c5.5,0.8,14.2,1.6,24.5,3.2c0.8,0,2.4,0,3.2,0.8c34,4,87.7,9.5,152.5,5.5
		c118.5-7.1,274.2-44.3,415.7-172.3v-0.8c0.8-11.1-0.8-30-14.2-45c-2.4-2.4-4.7-4.7-7.9-7.1c-1.6-1.6-4-2.4-5.5-4
		c-2.4-0.8-4-2.4-5.5-3.2l-7.1-4.7v-0.8c-0.8-1.6-1.6-3.2-3.2-4.7c-36.4-55.3-86.9-87.7-107.5-102.7c-9.5-7.1-15.8-10.3-15.8-10.3
		c-43.5-26.9-49.8-35.6-45.8-107.5c1.6-26.1,4-60.1,7.1-106.7c0-6.3,0.8-11.9,0.8-17.4v-4v-19c0-4-0.8-7.9-0.8-11.1
		c0-1.6,0-3.2-0.8-4.7c-0.8-4-0.8-7.9-1.6-11.9c0-1.6-0.8-4-0.8-5.5c0-2.4-0.8-4-1.6-6.3c-0.8-1.6-0.8-4-1.6-5.5
		c-0.8-2.4-1.6-4.7-1.6-7.1c0-0.8-0.8-1.6-0.8-2.4c0-0.8-0.8-1.6-0.8-2.4v-0.8l-0.8-2.4c-0.8-1.6-1.6-3.2-1.6-4.7v-0.8l-0.8-1.6
		l-0.8-1.6c-1.6-3.2-2.4-6.3-4-8.7l-0.8-2.4c-1.6-2.4-3.2-5.5-4.7-7.9l-0.8-0.8l-0.8-0.8c-1.6-1.6-2.4-3.2-4-4.7l-1.6-2.4
		c-1.6-2.4-3.2-4-4.7-5.5v-6.3c-0.8-3.2-1.6-7.1-2.4-11.1c0-0.8-0.8-2.4-0.8-3.2v-0.8c0-1.6-0.8-2.4-0.8-4c-0.8-3.2-1.6-6.3-3.2-9.5
		c0-0.8-0.8-2.4-0.8-3.2l-2.4-7.1c-0.8-1.6-0.8-3.2-1.6-4c-0.8-2.4-1.6-4.7-3.2-7.1l-2.4-4.7c-0.8-2.4-2.4-4.7-3.2-7.1l-2.4-4.7
		c-1.6-2.4-2.4-4.7-4-7.1l-2.4-4.7c-1.6-2.4-3.2-4.7-4.7-7.9c-0.8-1.6-1.6-2.4-2.4-4c-0.8-0.8-1.6-2.4-2.4-3.2
		c-2.4-2.4-4-4.7-6.3-7.1l-1.6-0.8c-3.2-3.2-5.5-6.3-8.7-8.7l-0.8-0.8c-1.6-0.8-3.2-2.4-4-3.2h-0.8c-1.6-0.8-2.4-1.6-4-2.4l-0.8-0.8
		c-1.6-0.8-4-2.4-7.1-4c-0.8-0.8-2.4-0.8-4-1.6c-7.1-2.4-15.8-5.5-26.9-8.7c-0.8,0-1.6,0-2.4-0.8c-8.7-2.4-19-4.7-30-6.3
		c-4-0.8-7.1-0.8-11.1-1.6c-1.6,0-3.2,0-5.5-0.8h-2.4c-8.7-0.8-16.6-1.6-25.3-1.6h-0.8c-11.1,0-22.1,0.8-32.4,3.2
		c2.4-4,9.5-8.7,15.8-12.6c8.7-4.7,16.6-7.9,16.6-7.9c-4.7,0-9.5,0.8-14.2,1.6c-1.6,0-3.2,0.8-4.7,0.8c-0.8,0-2.4,0-3.2,0.8h-0.8
		c-0.8,0-1.6,0-2.4,0.8c-24.5,5.5-48.2,14.2-61.6,19.8l-4.7,2.4h-0.8c-1.6,0-2.4,0-4,0.8c9.5-18.2,23.7-27.7,34.8-32.4
		c1.6-0.8,4-1.6,5.5-2.4c0.8,0,0.8,0,1.6-0.8c1.6-0.8,3.2-0.8,4-1.6c2.4-0.8,4-0.8,4-0.8h-12.6c-26.9,3.2-51.4,11.9-71.9,23.7
		c-14.2,7.9-26.9,16.6-37.9,25.3c-3.2,0.8-5.5,1.6-8.7,1.6c-30,6.3-64,14.2-99.6,25.3c-13.4,4-26.9,8.7-40.3,13.4
		c-10.3,4-21.3,7.9-31.6,11.9c-7.9,3.2-15,6.3-22.9,9.5c-54.5,24.5-109.1,56.9-154.1,100.4l-4.7,4.7l-11.9,11.9l-4.7,4.7
		c-1.6,2.4-4,4.7-5.5,6.3c-8.7,9.5-16.6,19.8-24.5,30.8c-5.5,7.9-11.1,16.6-15.8,25.3l-0.8,0.8c-10.3,18.2-19.8,37.1-26.9,58.5
		c-4,10.3-7.1,21.3-10.3,32.4c-0.8,3.2-1.6,5.5-2.4,8.7l-0.8,1.6c-3.2,11.9-5.5,24.5-7.1,37.1c0,2.4-0.8,4.7-0.8,7.9
		c-0.8,6.3-1.6,12.6-1.6,19.8c-0.8,6.3-0.8,11.9-0.8,18.2v24.5c0,7.1,0,14.2,0.8,21.3v0.8c0,7.1,0.8,14.2,1.6,22.1
		c0,3.2,0.8,6.3,0.8,9.5v2.4c0,1.6,0,3.2,0.8,5.5c0.8,7.9,2.4,16.6,3.2,25.3c0,2.4,0.8,4.7,0.8,7.1c1.6,7.1,2.4,15,4,22.1
		c0,0-1.6-9.5-0.8-23.7c0-3.2,0.8-7.1,0.8-10.3c0.8-7.9,2.4-17.4,5.5-26.1l2.4-7.1c0-0.8,0.8-1.6,1.6-3.2c1.6-4,4-8.7,6.3-12.6
		c0.8,3.2,0.8,6.3,1.6,8.7v41.9c0.8,26.9,3.2,59.3,8.7,86.9c0,0,0.8-49.8,9.5-56.1c0,0,15,93.2,28.4,128c1.6,4.7,4,7.9,5.5,10.3
		v-9.5l-1.6-51.4v-5.5c10.3,21.3,22.1,42.7,35.6,65.6c4,6.3,7.1,12.6,11.1,19c-25.3,22.1-49,54.5-66.4,92.5
		c-2.4,6.3-5.5,12.6-7.9,19c-1.6,4-2.4,7.1-4,11.1c0,0.8-0.8,2.4-0.8,3.2c-0.8,2.4-1.6,5.5-2.4,7.9c0,1.6-0.8,2.4-0.8,4
		c-0.8,2.4-1.6,5.5-2.4,7.9c0,1.6-0.8,2.4-0.8,4l-2.4,11.9c-0.8,4-1.6,7.9-1.6,11.9c0,1.6,0,2.4-0.8,4c0,3.2-0.8,5.5-0.8,8.7
		c0,1.6,0,3.2-0.8,4.7c0,3.2-0.8,5.5-0.8,8.7v27.7c0,3.2,0,6.3,0.8,10.3v2.4c0,4,0.8,7.9,1.6,12.6c0,1.6,0,2.4,0.8,4
		c0,3.2,0.8,5.5,1.6,8.7c0,1.6,0.8,3.2,0.8,4.7c0.8,2.4,0.8,5.5,1.6,7.9c0,1.6,0.8,3.2,0.8,4.7c0.8,2.4,1.6,4.7,1.6,7.9
		c0.8,1.6,0.8,3.2,1.6,5.5s1.6,5.5,2.4,7.9c0.8,1.6,0.8,3.2,1.6,4.7c0.8,2.4,1.6,5.5,2.4,7.9c0.8,1.6,0.8,3.2,1.6,4.7
		c0.8,3.2,2.4,6.3,3.2,8.7c0.8,1.6,0.8,2.4,1.6,4l11.9,26.1c0.8,1.6,1.6,2.4,2.4,4l4.7,9.5c0.8,1.6,1.6,3.2,3.2,4.7
		c1.6,2.4,3.2,5.5,4.7,7.9c0.8,1.6,2.4,3.2,3.2,4.7c1.6,2.4,3.2,5.5,5.5,7.9c1.6,1.6,2.4,3.2,4,5.5c1.6,2.4,4,5.5,5.5,7.9
		c1.6,1.6,2.4,3.2,4,5.5c2.4,2.4,4,5.5,6.3,7.9c1.6,1.6,2.4,3.2,4,4.7c2.4,3.2,4.7,5.5,7.9,8.7l4,4c4,4,7.9,8.7,11.9,12.6
		c0,0-2.4-3.2-5.5-9.5c-0.8-0.8-1.6-2.4-1.6-4l-2.4-4.7c-0.8-1.6-1.6-3.2-2.4-5.5c-6.3-14.2-11.9-34.8-11.1-56.9l7.1,9.5
		c2.4,5.5,6.3,12.6,10.3,20.5c1.6,2.4,3.2,5.5,4,7.9c6.3,11.1,12.6,23.7,20.5,35.6c9.5,15,19,29.2,29.2,42.7
		c0,0-11.9-25.3-15.8-41.9c-0.8-4.7-1.6-8.7-0.8-11.1c0.8,0.8,1.6,2.4,3.2,3.2c0.8,0.8,1.6,2.4,3.2,3.2c1.6,2.4,4,5.5,7.1,9.5
		l1.6,1.6c1.6,1.6,2.4,4,4,5.5c1.6,2.4,3.2,4.7,5.5,7.1c16.6,21.3,39.5,49.8,55.3,64.8c5.5,4.7,10.3,8.7,13.4,10.3l-22.9-41.1
		c52.2,42.7,268.7,97.2,481.2,36.4c26.1-7.1,51.4-16.6,76.7-27.7c15-6.3,30-14.2,45-22.1l2.4-1.6c10.3-5.5,20.5-11.9,30.8-18.2
		c7.9-4.7,15.8-10.3,22.9-15c12.6-8.7,25.3-18.2,37.9-28.4c0.8-0.8,1.6-1.6,2.4-1.6c11.9-10.3,23.7-21.3,34-32.4
		c14.2-15,26.9-30,37.9-45l0.8-0.8c3.2-4,5.5-7.1,7.9-11.1l0.8-0.8c0.8-1.6,1.6-2.4,2.4-4c4-5.5,7.1-10.3,11.1-15.8
		c0.8-1.6,1.6-2.4,2.4-4c1.6-3.2,3.2-5.5,5.5-8.7c1.6-2.4,2.4-4,4-6.3s3.2-4.7,4-7.1c2.4-4,4.7-8.7,7.1-12.6l2.4-4.7l4.7-9.5
		l2.4-4.7l0.8-1.6c1.6-4,4-7.9,5.5-11.9v-0.8c7.1-6.3,11.9-12.6,16.6-18.2c0.8-0.8,1.6-1.6,1.6-2.4
		C1940.3,1729.5,1943.5,1717.6,1943.5,1706.6 M672,1553.3c0-0.8,0-1.6-0.8-3.2c-2.4-13.4-4.7-27.7-5.5-41.9v-3.2
		c-2.4,0.8-4.7,4-7.9,7.9c-0.8,1.6-2.4,3.2-3.2,5.5c-7.1,13.4-13.4,32.4-13.4,32.4c0.8-6.3,1.6-12.6,1.6-19v-2.4
		c0.8-6.3,1.6-13.4,2.4-19.8v-2.4c0.8-7.9,2.4-15,4-22.1c0-0.8,0-1.6,0.8-3.2v-0.8c0-0.8,0-1.6,0.8-2.4c0-1.6,0.8-2.4,0.8-4
		c0.8-5.5,2.4-11.1,3.2-16.6c0.8-4.7,1.6-9.5,2.4-13.4v-1.6c0-0.8,0-1.6,0.8-1.6v-1.6c0-0.8,0.8-2.4,0.8-3.2c0-0.8,0-1.6,0.8-2.4
		c0-1.6,0.8-3.2,0.8-4s0.8-2.4,0.8-3.2c0-1.6,0.8-3.2,0.8-4s0-1.6,0.8-2.4c0-0.8,0-1.6,0.8-1.6c0-1.6,0.8-2.4,0.8-3.2v-2.4l-1.6,1.6
		c-1.6,0.8-2.4,2.4-4,3.2l-1.6,1.6c-1.6,1.6-3.2,3.2-4,4.7l-0.8,0.8l-4.7,7.1l-0.8,0.8c0,0.8-0.8,0.8-0.8,1.6l-2.4,4.7v1.6
		c-0.8,2.4-2.4,4.7-3.2,7.1c-2.4,6.3-4.7,12.6-6.3,18.2c-0.8,1.6-0.8,4-1.6,4.7c-0.8,3.2-1.6,6.3-1.6,7.1v0.8v-0.8
		c0-2.4,0-4,0.8-6.3c0-4,0.8-8.7,0.8-12.6c0-3.2,0.8-7.1,1.6-10.3c0-0.8,0-2.4,0.8-3.2c0-1.6,0.8-3.2,0.8-4.7c0-1.6,0.8-3.2,0.8-4.7
		v-2.4c0-1.6,0.8-4,0.8-5.5v-4v-1.6c0-0.8,0-1.6,0.8-2.4c0.8-2.4,1.6-5.5,1.6-7.9v-0.8c0.8-1.6,0.8-4,1.6-5.5v-0.8
		c0.8-4,2.4-7.9,3.2-11.9v-1.6c0-0.8,0-1.6,0.8-2.4c1.6-6.3,4-12.6,5.5-18.2v-0.8c1.6-4.7,4-10.3,5.5-15v-0.8c0.8-2.4,1.6-4,2.4-6.3
		c1.6-3.2,2.4-6.3,4-9.5c0-0.8,0.8-2.4,2.4-5.5c0.8-0.8,0.8-2.4,1.6-3.2c0.8-1.6,1.6-3.2,2.4-5.5l0.8-1.6l13.4-24.5
		c0.8-0.8,0.8-2.4,1.6-3.2v-0.8l0.8-1.6c1.6-2.4,3.2-5.5,4.7-7.9c2.4-4,4-7.9,6.3-11.1c4-7.1,7.1-13.4,9.5-16.6
		c0.8-2.4,1.6-3.2,2.4-4c-0.8,0-4.7-3.2-11.1-7.1c-7.9-4.7-19-11.1-32.4-17.4c-4.7-2.4-8.7-4-13.4-6.3c-5.5-2.4-11.9-4.7-18.2-7.1
		c-1.6-0.8-3.2-0.8-4.7-1.6c-5.5-1.6-10.3-3.2-15.8-4.7c-4-0.8-7.9-1.6-11.1-2.4c-3.2-0.8-6.3-0.8-9.5-1.6c-1.6,0-3.2,0-4.7-0.8
		c-1.6,0-3.2,0-4.7-0.8c-4,0-8.7-0.8-12.6-0.8h-6.3c-9.5,0-18.2,0.8-26.9,2.4h-1.6c-15.8,2.4-30.8,6.3-45.8,11.9
		c-4.7,1.6-9.5,4-15,6.3c-1.6,0.8-2.4,1.6-4,1.6l-4.7,2.4c-14.2,7.1-27.7,16.6-40.3,26.9h-0.8c-11.1,8.7-20.5,19-29.2,29.2l-7.1,9.5
		c-3.2,4-5.5,7.9-7.9,11.9c-4.7,7.1-9.5,15-13.4,22.9c-1.6,3.2-3.2,5.5-4,8.7c0,0.8-0.8,0.8-0.8,1.6c-7.9,19-14.2,38.7-16.6,60.1
		c-0.8,4-0.8,7.9-1.6,12.6v1.6c0,3.2-0.8,6.3-0.8,10.3v14.2c0,3.2,0,6.3,0.8,9.5v4c0,2.4,0.8,4.7,0.8,7.1v0.8c0,1.6,0,2.4,0.8,4
		c0,2.4,0.8,4.7,0.8,6.3s0.8,3.2,0.8,4.7c0.8,2.4,0.8,4,1.6,6.3c0,1.6,0.8,3.2,1.6,4.7v0.8l0.8,1.6v1.6l0.8,1.6
		c0.8,1.6,0.8,3.2,1.6,4.7c0.8,1.6,0.8,4,1.6,5.5s1.6,3.2,1.6,5.5l0.8,1.6c0.8,1.6,0.8,2.4,1.6,4c0.8,1.6,1.6,3.2,2.4,5.5l2.4,4.7
		c0.8,0.8,0.8,1.6,1.6,2.4c0.8,0.8,0.8,1.6,1.6,2.4l2.4,4.7c0.8,1.6,1.6,4,3.2,5.5c0.8,1.6,1.6,3.2,2.4,4c0.8,1.6,2.4,4,3.2,5.5
		c0.8,1.6,1.6,2.4,2.4,4c0.8,1.6,2.4,4,4,5.5c0.8,1.6,1.6,2.4,2.4,3.2c1.6,1.6,2.4,4,4,5.5c0.8,0.8,1.6,2.4,2.4,3.2
		c1.6,1.6,3.2,4,4.7,5.5c0.8,0.8,1.6,1.6,2.4,3.2c1.6,1.6,3.2,4,4.7,5.5l2.4,2.4c1.6,1.6,3.2,4,5.5,5.5l2.4,2.4l5.5,5.5
		c0.8,0.8,1.6,1.6,2.4,1.6c1.6,1.6,4,3.2,6.3,5.5c0.8,0.8,1.6,0.8,2.4,1.6c2.4,1.6,4,3.2,6.3,4.7c0.8,0.8,1.6,0.8,1.6,1.6l7.1,4.7
		l1.6,0.8l7.1,4.7l1.6,0.8c2.4,1.6,5.5,3.2,7.9,4.7l1.6,0.8c2.4,1.6,5.5,3.2,7.9,4l1.6,0.8c3.2,1.6,5.5,2.4,8.7,4l0.8,0.8
		c3.2,1.6,6.3,2.4,8.7,4h0.8c3.2,0.8,6.3,2.4,9.5,3.2h0.8c1.6,0.8,3.2,0.8,4.7,1.6c1.6,0.8,3.2,0.8,5.5,1.6h0.8
		c3.2,0.8,7.1,1.6,10.3,2.4c3.2,0.8,7.1,1.6,10.3,1.6c11.1,1.6,22.1,2.4,33.2,3.2h7.9c4,0,7.1,0,11.1-0.8c4.7-0.8,10.3-0.8,15.8-1.6
		c4.7-0.8,9.5-1.6,13.4-2.4c7.1-1.6,14.2-3.2,20.5-5.5c20.5-5.5,37.9-13.4,49-22.1c0,0-7.1-31.6-12.6-63.2
		C673.6,1559.6,672.8,1556.4,672,1553.3"/>
</g>
<path class="st3" d="M1179.3,379l-2.4-31.6l15.8-34.8l6.3-1.6c-10.3-4.7-22.9-7.9-37.1-10.3c-28.4-4-64.8,0-105.9,10.3
	s-87.7,28.4-136.7,52.9C820.6,413,711.5,488,605.6,584.5c-37.1,33.2-71.1,68-102.7,101.9c-30.8,33.2-58.5,67.2-83.8,99.6
	c-51.4,67.2-90.1,132-115.4,190.4c-16.6,38.7-26.9,74.3-30.8,105.1c-3.2,22.1-2.4,41.9,1.6,57.7c1.6,5.5,3.2,9.5,4.7,14.2
	c4,9.5,8.7,17.4,15,24.5l64,67.2l7.1,7.1l0.8-0.8c1.6-2.4,4-4.7,6.3-6.3l0.8-0.8l2.4-2.4c1.6-2.4,4-4,5.5-6.3c1.6-1.6,2.4-2.4,4-3.2
	c1.6-0.8,2.4-2.4,4-3.2l1.6-1.6c1.6-0.8,2.4-2.4,4-3.2c1.6-1.6,4-3.2,5.5-4.7c0.8-0.8,2.4-1.6,3.2-2.4h0.8c2.4-1.6,4-3.2,6.3-4.7
	c1.6-0.8,2.4-1.6,4-3.2c2.4-1.6,4-3.2,6.3-4.7c1.6-0.8,2.4-1.6,4-2.4c2.4-1.6,4.7-3.2,7.1-4c1.6-0.8,2.4-1.6,4-2.4
	c2.4-1.6,4.7-2.4,7.1-4c1.6-0.8,2.4-1.6,4-2.4l1.6-0.8c15-41.9,37.9-88.5,68-135.9c36.4-58.5,83-120.1,138.3-181.8
	c34.8-38.7,72.7-77.4,113.8-114.6c52.9-48.2,107.5-91.7,161.2-129.6c36.4-25.3,71.9-48.2,106.7-68c3.2-1.6,6.3-4,10.3-5.5
	c9.5-5.5,18.2-10.3,27.7-15c19.8-10.3,39.5-19.8,58.5-27.7l-9.5-11.1l-1.6-1.6l-11.9-13.4l-65.6-79l0.8-56.9l-0.8-0.8l46.6-14.2
	L1179.3,379"/>
<g>
	<path class="st4" d="M1943.5,1706.6c0,0,1.6-11.9-4.7-22.9c0-0.8-0.8-1.6-0.8-1.6l-0.8-0.8l-2.4-2.4c-1.6-1.6-3.2-3.2-5.5-4.7
		c-0.8-0.8-2.4-1.6-4-2.4c-4-1.6-7.9-3.2-13.4-4c-4-0.8-7.9-0.8-12.6-0.8h-6.3v1.6c0,0.8,0.8,1.6,0.8,3.2c0,0.8,0,1.6,0.8,1.6
		c0.8,2.4,1.6,6.3,2.4,9.5c0,0,0,0.8-0.8,2.4v0.8c-2.4,5.5-8.7,18.2-22.9,34c-2.4,3.2-4.7,5.5-7.9,8.7
		c-39.5,41.1-124.9,98.8-305,131.2c-60.8,8.7-117.7,9.5-165.2,3.2c-71.1-8.7-124.1-31.6-149.4-62.4c-2.4-2.4-4-5.5-6.3-7.9
		c-1.6-2.4-2.4-4-4-6.3c-0.8-0.8-0.8-1.6-1.6-2.4c-10.3-19-15-39.5-15-59.3c0-24.5,7.9-47.4,20.5-64.8c10.3-14.2,23.7-25.3,40.3-30
		c7.9-2.4,16.6-4,25.3-3.2c1.6,0,4,0,7.1,0.8c5.5,0.8,14.2,1.6,24.5,3.2c0.8,0,2.4,0,3.2,0.8c34,4,87.7,9.5,152.5,5.5
		c118.5-7.1,274.2-44.3,415.7-172.3v-0.8c0.8-11.1-0.8-30-14.2-45c-2.4-2.4-4.7-4.7-7.9-7.1c-1.6-1.6-4-2.4-5.5-4
		c-2.4-0.8-4-2.4-5.5-3.2l-7.1-4.7v-0.8c-0.8-1.6-1.6-3.2-3.2-4.7c-36.4-55.3-86.9-87.7-107.5-102.7c-9.5-7.1-15.8-10.3-15.8-10.3
		c-43.5-26.9-49.8-35.6-45.8-107.5c1.6-26.1,4-60.1,7.1-106.7c0-6.3,0.8-11.9,0.8-17.4v-4v-19c0-4-0.8-7.9-0.8-11.1
		c0-1.6,0-3.2-0.8-4.7c-0.8-4-0.8-7.9-1.6-11.9c0-1.6-0.8-4-0.8-5.5c0-2.4-0.8-4-1.6-6.3c-0.8-1.6-0.8-4-1.6-5.5
		c-0.8-2.4-1.6-4.7-1.6-7.1c0-0.8-0.8-1.6-0.8-2.4c0-0.8-0.8-1.6-0.8-2.4v-0.8l-0.8-2.4c-0.8-1.6-1.6-3.2-1.6-4.7v-0.8l-0.8-1.6
		l-0.8-1.6c-1.6-3.2-2.4-6.3-4-8.7l-0.8-2.4c-1.6-2.4-3.2-5.5-4.7-7.9l-0.8-0.8l-0.8-0.8c-1.6-1.6-2.4-3.2-4-4.7l-1.6-2.4
		c-1.6-2.4-3.2-4-4.7-5.5l-6.3-6.3c-2.4-1.6-4.7-3.2-7.1-4c-0.8-0.8-1.6-0.8-2.4-0.8l-4.7-2.4c-0.8,0-1.6-0.8-2.4-0.8
		c-1.6-0.8-3.2-0.8-4-1.6c-0.8,0-1.6-0.8-3.2-0.8s-2.4-0.8-4-0.8h-17.4c-0.8,0-1.6,0-2.4,0.8c-0.8,0-1.6,0-2.4,0.8
		c-1.6,0-3.2,0.8-5.5,1.6h-1.6c-4.7,1.6-8.7,3.2-13.4,4.7l-1.6,0.8c-1.6,0.8-3.2,1.6-5.5,2.4l-2.4,0.8l-4.7,2.4l-2.4,1.6l-4.7,2.4
		l-2.4,1.6c-1.6,0.8-3.2,2.4-4.7,3.2l-1.6,0.8c-1.6,1.6-4,2.4-5.5,4l-0.8,0.8c-2.4,1.6-4,3.2-6.3,4c-4,2.4-7.9,5.5-11.9,7.9
		c-3.2,2.4-6.3,4.7-10.3,7.1l-1.6,0.8c-3.2,2.4-7.1,4.7-10.3,6.3l-1.6,0.8c-3.2,2.4-7.1,4-10.3,6.3l-1.6,0.8
		c-3.2,2.4-7.1,4-11.1,5.5l-1.6,0.8c-4,1.6-7.1,3.2-11.1,4.7l-1.6,0.8c-4,1.6-7.9,2.4-11.9,4h-0.8c-4,0.8-8.7,1.6-12.6,2.4
		c-7.1,0.8-15,1.6-22.1,1.6c-11.9,0-23.7-0.8-36.4-2.4l-11.9-2.4c-1.6,0-3.2-0.8-4-0.8c-10.3-2.4-21.3-4.7-31.6-7.1
		c-4.7-0.8-8.7-2.4-13.4-3.2c-7.1-1.6-14.2-3.2-22.1-4.7c-1.6,0-3.2-0.8-4-0.8c-0.8,0-2.4-0.8-3.2-0.8c-1.6,0-3.2-0.8-4.7-0.8
		c-1.6,0-3.2-0.8-4.7-0.8h-1.6c-1.6,0-3.2-0.8-4-0.8c-3.2-0.8-6.3-1.6-10.3-1.6c-0.8,0-2.4,0-3.2-0.8c-2.4,0-4.7-0.8-7.1-0.8
		c-1.6,0-2.4,0-4-0.8c-2.4,0-4-0.8-6.3-0.8h-36.4c-4,0-7.1,0.8-11.1,0.8h-3.2c-2.4,0-4.7,0.8-7.1,0.8h-0.8c-1.6,0-2.4,0.8-4,0.8
		c-2.4,0.8-4.7,0.8-7.1,1.6c-1.6,0-3.2,0.8-4,0.8c-2.4,0.8-4.7,1.6-7.1,1.6c-1.6,0-2.4,0.8-4,1.6c-2.4,0.8-5.5,1.6-7.9,2.4
		c-1.6,0.8-2.4,0.8-3.2,1.6c-4,1.6-7.9,3.2-11.1,4.7c-30,17.4-56.1,41.1-75.9,68c-7.1,9.5-13.4,19-19,28.4
		c-6.3,10.3-11.1,21.3-15.8,32.4c-1.6,3.2-2.4,6.3-4,9.5c-1.6,5.5-4,11.1-5.5,16.6c0,0.8,0,1.6-0.8,1.6c-1.6,6.3-3.2,12.6-4.7,19.8
		s-2.4,13.4-3.2,20.5c-0.8,4-0.8,7.1-0.8,11.1c-0.8,10.3-0.8,19.8,0,30v2.4c0,2.4,0,4.7,0.8,7.9c0.8,7.1,1.6,14.2,3.2,21.3
		c0.8,2.4,1.6,4.7,1.6,7.9c0.8,2.4,0.8,4.7,1.6,7.1c4.7,18.2,11.9,34.8,20.5,49c32.4,56.1,86.1,90.1,125.6,108.3
		c15,6.3,30.8,12.6,47.4,18.2l-1.6,1.6c-3.2,0.8-6.3,1.6-10.3,2.4c-5.5,1.6-12.6,4-19.8,6.3c-7.9,2.4-17.4,6.3-26.9,10.3
		c-25.3,10.3-53.7,25.3-79,45.8c-3.2,2.4-6.3,5.5-9.5,7.9c-5.5,4.7-10.3,9.5-15,15l-1.6,1.6l-2.4,2.4c-1.6,2.4-4,4-5.5,6.3l-2.4,2.4
		c-2.4,3.2-4.7,6.3-6.3,9.5c-2.4,3.2-4,6.3-6.3,9.5c-15,26.1-23.7,57.7-21.3,95.6v-1.6c0-0.8,0-1.6,0.8-2.4v-0.8
		c0-0.8,0.8-1.6,0.8-3.2v-0.8c0-0.8,0.8-2.4,0.8-4s0.8-2.4,1.6-4v-0.8c0.8-1.6,0.8-3.2,1.6-4.7v-0.8c0.8-1.6,0.8-3.2,1.6-4.7v-0.8
		c0.8-1.6,1.6-3.2,2.4-5.5l0.8-0.8c0.8-1.6,1.6-4,3.2-5.5c1.6-3.2,3.2-5.5,4.7-8.7c0.8-0.8,1.6-2.4,2.4-3.2l0.8-0.8l4.7-7.1
		c1.6-1.6,3.2-4,4.7-5.5l1.6-1.6c1.6-1.6,2.4-3.2,4-4l1.6-1.6c1.6-1.6,4-3.2,5.5-5.5c0,0-34,77.4-19,138.3v-0.8v-1.6v-2.4v-3.2v-4
		c0-1.6,0-3.2,0.8-4.7c0-1.6,0-3.2,0.8-4.7v-0.8c0-1.6,0.8-4,0.8-5.5v-1.6c0.8-2.4,0.8-4,1.6-6.3v-0.8c0.8-2.4,1.6-4.7,1.6-6.3
		c0-0.8,0.8-1.6,0.8-2.4l0.8-1.6c0.8-1.6,1.6-4,2.4-5.5c0.8-2.4,2.4-4.7,4-7.1c0-0.8,0.8-1.6,0.8-1.6l4.7-7.1c0,0-1.6,19-1.6,41.9
		c0,4,0,7.1,0.8,11.1c0,2.4,0,4.7,0.8,7.1c1.6-24.5,6.3-47.4,12.6-68.7c-6.3,21.3-11.1,44.3-12.6,68.7c-0.8,15.8-0.8,31.6,0.8,48.2
		c2.4,27.7,9.5,57.7,21.3,88.5c0,0-11.1-35.6,4.7-71.1l4.7,9.5c1.6,10.3,3.2,25.3,6.3,41.9c3.2,27.7,15.8,110.6,72.7,168.3
		c0,0-21.3-27.7-18.2-63.2c2.4,4.7,4.7,8.7,6.3,12.6c9.5,18.2,28.4,51.4,49.8,75.1c0,0-16.6-32.4-12.6-39.5c0,0,55.3,68.7,72.7,75.1
		l-22.9-37.9l-0.8-0.8c79.8,58.5,190.4,79.8,326.4,41.9c23.7-6.3,47.4-15,72.7-25.3c15-6.3,30-14.2,45-22.1l2.4-1.6
		c10.3-5.5,20.5-11.9,30.8-18.2c7.9-4.7,15.8-10.3,22.9-15c12.6-8.7,25.3-18.2,37.9-28.4c0.8-0.8,1.6-1.6,2.4-1.6
		c11.9-10.3,23.7-21.3,34-32.4c14.2-15,26.9-30,37.9-45l0.8-0.8c3.2-4,5.5-7.1,7.9-11.1l0.8-0.8c0.8-1.6,1.6-2.4,2.4-4
		c4-5.5,7.1-10.3,11.1-15.8c0.8-1.6,1.6-2.4,2.4-4c1.6-3.2,3.2-5.5,5.5-8.7c1.6-2.4,2.4-4,4-6.3c1.6-2.4,3.2-4.7,4-7.1
		c2.4-4,4.7-8.7,7.1-12.6l2.4-4.7l4.7-9.5l2.4-4.7l0.8-1.6c1.6-4,4-7.9,5.5-11.9v-0.8c7.1-6.3,11.9-12.6,16.6-18.2
		c0.8-0.8,1.6-1.6,1.6-2.4C1940.3,1729.5,1943.5,1717.6,1943.5,1706.6 M665.7,1505.1c-2.4,0.8-4.7,4-7.9,7.9
		c-0.8,1.6-2.4,3.2-3.2,5.5c-7.1,13.4-13.4,32.4-13.4,32.4c0.8-6.3,1.6-12.6,1.6-19v-2.4c0.8-6.3,1.6-13.4,2.4-19.8v-2.4
		c0.8-7.9,2.4-15,4-22.1c0-0.8,0-1.6,0.8-3.2v-0.8c0-0.8,0-1.6,0.8-2.4c0-1.6,0.8-2.4,0.8-4c0.8-5.5,2.4-11.1,3.2-16.6
		c0.8-4.7,1.6-9.5,2.4-13.4v-1.6c0-0.8,0-1.6,0.8-1.6v-1.6c0-0.8,0.8-2.4,0.8-3.2c0-0.8,0-1.6,0.8-2.4c0-1.6,0.8-3.2,0.8-4
		s0.8-2.4,0.8-3.2c0-1.6,0.8-3.2,0.8-4s0-1.6,0.8-2.4c0-0.8,0-1.6,0.8-1.6c0-1.6,0.8-2.4,0.8-3.2v-2.4l-1.6,1.6
		c-1.6,0.8-2.4,2.4-4,3.2l-1.6,1.6c-1.6,1.6-3.2,3.2-4,4.7l-0.8,0.8l-4.7,7.1l-0.8,0.8c0,0.8-0.8,0.8-0.8,1.6l-2.4,4.7v1.6
		c-0.8,2.4-2.4,4.7-3.2,7.1c-2.4,6.3-4.7,12.6-6.3,18.2c-0.8,1.6-0.8,4-1.6,4.7c-0.8,3.2-1.6,6.3-1.6,7.1v0.8v-0.8
		c0-2.4,0-4,0.8-6.3c0-4,0.8-8.7,0.8-12.6c0-3.2,0.8-7.1,1.6-10.3c0-0.8,0-2.4,0.8-3.2c0-1.6,0.8-3.2,0.8-4.7c0-1.6,0.8-3.2,0.8-4.7
		v-2.4c0-1.6,0.8-4,0.8-5.5v-4v-1.6c0-0.8,0-1.6,0.8-2.4c0.8-2.4,1.6-5.5,1.6-7.9v-0.8c0.8-1.6,0.8-4,1.6-5.5v-0.8
		c0.8-4,2.4-7.9,3.2-11.9v-1.6c0-0.8,0-1.6,0.8-2.4c1.6-6.3,4-12.6,5.5-18.2v-0.8c1.6-4.7,4-10.3,5.5-15v-0.8c0.8-2.4,1.6-4,2.4-6.3
		c1.6-3.2,2.4-6.3,4-9.5c0-0.8,0.8-2.4,2.4-5.5c0.8-0.8,0.8-2.4,1.6-3.2c0.8-1.6,1.6-3.2,2.4-5.5l0.8-1.6c-0.8-0.8-2.4-0.8-3.2-1.6
		h-0.8l-1.6-0.8c-7.1-3.2-15-6.3-22.9-8.7h-1.6c-5.5-1.6-10.3-2.4-15.8-3.2c-3.2,0-6.3-0.8-9.5-0.8h-7.9c-4,0-7.9,0.8-11.9,0.8
		c-1.6,0-2.4,0-4,0.8c-1.6,0-4,0.8-5.5,0.8c-0.8,0-1.6,0-2.4,0.8c-1.6,0-2.4,0.8-4,0.8c-2.4,0.8-5.5,1.6-7.9,2.4
		c-0.8,0-2.4,0.8-3.2,0.8c-3.2,1.6-7.1,2.4-10.3,4c-1.6,0.8-2.4,1.6-4,1.6l-4.7,2.4l-1.6,0.8c-1.6,0.8-3.2,1.6-4.7,3.2
		c-1.6,0.8-3.2,1.6-4.7,3.2c-1.6,0.8-3.2,2.4-4.7,3.2c-0.8,0.8-2.4,1.6-3.2,2.4c-2.4,2.4-5.5,4.7-7.9,7.1l-4,4
		c-2.4,2.4-4,4.7-6.3,7.1l-0.8,0.8c-0.8,1.6-2.4,2.4-3.2,4l-2.4,2.4c-4,5.5-7.9,11.9-11.1,18.2c-0.8,0.8-0.8,1.6-1.6,2.4
		c-1.6,3.2-2.4,6.3-4,9.5c-0.8,1.6-0.8,2.4-1.6,4c-0.8,3.2-2.4,6.3-3.2,10.3v3.2c-0.8,2.4-0.8,4.7-1.6,7.1c0,1.6,0,2.4-0.8,4
		c0,1.6,0,2.4-0.8,4v3.2c0,4-0.8,7.9,0,11.9c0,3.2,0,6.3,0.8,9.5v1.6c0,1.6,0.8,3.2,0.8,4.7c0.8,6.3,2.4,11.9,4,18.2
		c1.6,4.7,3.2,8.7,4.7,12.6c3.2,7.9,7.1,15,11.9,22.1c9.5,14.2,22.1,26.9,37.1,36.4c7.9,5.5,17.4,9.5,26.9,12.6
		c8.7,3.2,18.2,5.5,28.4,6.3c2.4,0,4.7,0.8,6.3,0.8h10.3c3.2,0,6.3-0.8,9.5-0.8c1.6,0,4,0,5.5-0.8c4.7-0.8,8.7-1.6,13.4-2.4h0.8
		c1.6-0.8,3.2-0.8,5.5-1.6c5.5-1.6,11.1-4,15.8-6.3l0.8-0.8c1.6-0.8,3.2-1.6,4-1.6c-2.4-13.4-4.7-27.7-5.5-41.9
		C665.7,1506.7,665.7,1505.9,665.7,1505.1"/>
</g>
<path class="st5" d="M1199.1,388.5l2.4,1.6L1199.1,388.5z"/>
<path class="st6" d="M1895.3,1674.2c0-0.8,0-1.6-0.8-1.6c-0.8-1.6-0.8-2.4-0.8-3.2c-4-12.6-8.7-22.1-13.4-29.2
	c-5.5-8.7-10.3-13.4-10.3-13.4l2.4-9.5c0.8-4,1.6-7.9,1.6-11.9c3.2-28.4-4-50.6-10.3-63.2c-0.8-2.4-1.6-4-2.4-5.5
	c-4.7,3.2-8.7,6.3-13.4,9.5c-85.3,57.7-181,94.8-284.5,110.6c-71.1,11.1-146.2,11.9-224.4,2.4l1.6,0.8c0,0-47.4,6.3-60.1,51.4
	l0.8,0.8l-4,30c1.6,41.1,19.8,66.4,41.1,79.8c22.1,8.7,49,15,79,19c51.4,6.3,111.4,4.7,171.5-4.7c80.6-11.1,194.4-53.7,275.8-109.1
	c18.2-12.6,35.6-26.1,49.8-39.5l0.8-0.8l0.8-0.8C1896.1,1680.5,1895.3,1677.3,1895.3,1674.2"/>
<g>
	<path class="st7" d="M1741.2,1283.8c-43.5-26.9-49.8-35.6-45.8-107.5c1.6-26.1,4-60.1,7.1-106.7c0-6.3,0.8-11.9,0.8-17.4v-4v-19
		c0-4-0.8-7.9-0.8-11.1c0-1.6,0-3.2-0.8-4.7c-0.8-4-0.8-7.9-1.6-11.9c0-1.6-0.8-4-0.8-5.5c0-2.4-0.8-4-1.6-6.3
		c-0.8-1.6-0.8-4-1.6-5.5c-6.3-9.5-13.4-17.4-22.1-24.5l-1.6-1.6l-1.6-0.8h-0.8c-1.6-0.8-2.4-1.6-4-2.4c-1.6-0.8-3.2-1.6-4-2.4
		c-12.6-7.9-27.7-12.6-42.7-15c-8.7-1.6-17.4-1.6-26.1-1.6c-4,0-8.7,0.8-12.6,0.8c-11.1,1.6-22.1,4-34,7.1c-4,2.4-7.9,5.5-11.9,7.9
		c-3.2,2.4-6.3,4.7-10.3,7.1l-1.6,0.8c-3.2,2.4-7.1,4.7-10.3,6.3l-1.6,0.8c-3.2,2.4-7.1,4-10.3,6.3l-1.6,0.8
		c-3.2,2.4-7.1,4-11.1,5.5l-1.6,0.8c-4,1.6-7.1,3.2-11.1,4.7l-1.6,0.8c-4,1.6-7.9,2.4-11.9,4h-0.8c-4,0.8-8.7,1.6-12.6,2.4
		c-7.1,0.8-15,1.6-22.1,1.6c-11.9,0-23.7-0.8-36.4-2.4l-11.9-2.4c-1.6,0-3.2-0.8-4-0.8c-10.3-2.4-21.3-4.7-31.6-7.1
		c-4.7-0.8-8.7-2.4-13.4-3.2c-7.1-1.6-14.2-3.2-22.1-4.7c-1.6,0-3.2-0.8-4-0.8c-6.3,0-12.6,0.8-18.2,1.6h-1.6
		c-18.2,2.4-35.6,6.3-53.7,12.6c-0.8,0-1.6,0.8-3.2,0.8c-3.2,0.8-5.5,2.4-8.7,3.2c-4,1.6-7.1,3.2-11.1,4.7
		c-26.1,11.1-50.6,26.9-74.3,46.6c-9.5,7.9-18.2,16.6-26.9,25.3c-12.6,13.4-23.7,27.7-34,42.7c-0.8,0.8-0.8,1.6-1.6,2.4
		c-5.5,7.9-10.3,16.6-14.2,24.5c-1.6,3.2-3.2,6.3-4.7,8.7v0.8c-4.7,10.3-8.7,19.8-11.9,30c0,0.8,0,1.6-0.8,1.6
		c-0.8,1.6-0.8,3.2-1.6,4.7c-1.6,4.7-3.2,9.5-4,14.2c-1.6,4.7-2.4,9.5-3.2,15c0,0.8-0.8,2.4-0.8,3.2c-0.8,3.2-0.8,6.3-1.6,8.7
		c-1.6,11.1-2.4,22.1-3.2,33.2v7.9c4.7,18.2,11.9,34.8,20.5,49c32.4,56.1,86.1,90.1,125.6,108.3c15,6.3,30.8,12.6,47.4,18.2l0.8,0.8
		l0.8-0.8c2.4-1.6,4-3.2,6.3-4.7c0.8-0.8,1.6-0.8,2.4-1.6l7.1-4.7c0.8-0.8,1.6-0.8,2.4-1.6l7.1-4.7c0.8-0.8,1.6-0.8,2.4-1.6
		c2.4-1.6,4.7-3.2,7.9-4.7c0.8-0.8,1.6-0.8,2.4-1.6c2.4-1.6,5.5-3.2,7.9-4.7c0.8-0.8,1.6-0.8,2.4-1.6c2.4-1.6,5.5-3.2,7.9-4.7
		c0.8-0.8,2.4-0.8,3.2-1.6c2.4-1.6,5.5-3.2,7.9-4.7c0.8-0.8,2.4-1.6,3.2-1.6c2.4-1.6,5.5-3.2,8.7-4.7c1.6-0.8,2.4-1.6,4-1.6
		c3.2-1.6,5.5-3.2,8.7-4c1.6-0.8,2.4-1.6,4-1.6c3.2-1.6,5.5-2.4,8.7-4l4.7-2.4c3.2-1.6,5.5-2.4,8.7-4c1.6-0.8,3.2-1.6,5.5-2.4
		c3.2-0.8,5.5-2.4,8.7-3.2c1.6-0.8,4-1.6,5.5-2.4c3.2-0.8,5.5-2.4,8.7-3.2c2.4-0.8,4-1.6,6.3-2.4c3.2-0.8,5.5-2.4,8.7-3.2l7.1-2.4
		c2.4-0.8,5.5-1.6,7.9-3.2c2.4-0.8,5.5-1.6,7.9-2.4s5.5-1.6,7.9-2.4c3.2-0.8,6.3-1.6,8.7-2.4s4.7-1.6,7.9-2.4s6.3-1.6,10.3-3.2
		c1.6-0.8,3.2-0.8,4.7-1.6c12.6-32.4,51.4-113,117-121.7c7.1-0.8,13.4-1.6,19.8-1.6h4.7c-0.8-4.7-1.6-9.5-1.6-15
		c-2.4-34.8,8.7-64,23.7-64.8c11.9-0.8,21.3,16.6,22.9,22.1c4.7,10.3,7.9,23.7,8.7,38.7c0.8,13.4-0.8,26.1-3.2,37.1
		c1.6,1.6,2.4,3.2,4,4c15,19,17.4,44.3,16.6,63.2c5.5-0.8,11.9-0.8,18.2-1.6c1.6,0,3.2,0,4.7-0.8h3.2c7.1-0.8,15-1.6,22.9-1.6
		c17.4-1.6,34.8-2.4,52.9-3.2C1747.5,1287,1741.2,1283.8,1741.2,1283.8 M1906.3,1770.6c-28.4,25.3-58.5,45.8-88.5,62.4
		c-15,7.9-30,15-44.3,21.3c-32.4,14.2-63.2,23.7-90.9,30.8c-60.8,15-102.7,15-102.7,15c33.2,18.2,75.1,18.2,103.5,15.8
		c19.8-1.6,33.2-5.5,33.2-5.5c-0.8,11.9-2.4,22.9-4,34c-2.4,11.9-5.5,22.1-9.5,31.6v0.8c-4.7,11.9-11.1,22.1-17.4,31.6
		c-0.8,0.8-1.6,2.4-2.4,3.2l2.4-1.6c10.3-5.5,20.5-11.9,30.8-18.2c7.9-4.7,15.8-10.3,22.9-15c12.6-8.7,25.3-18.2,37.9-28.4
		c0.8-0.8,1.6-1.6,2.4-1.6c11.9-10.3,23.7-21.3,34-32.4c14.2-15,26.9-30,37.9-45l0.8-0.8c3.2-4,5.5-7.1,7.9-11.1l0.8-0.8
		c0.8-1.6,1.6-2.4,2.4-4c4-5.5,7.1-10.3,11.1-15.8c0.8-1.6,1.6-2.4,2.4-4c1.6-3.2,3.2-5.5,5.5-8.7c1.6-2.4,2.4-4,4-6.3
		s3.2-4.7,4-7.1c2.4-4,4.7-8.7,7.1-12.6l2.4-4.7l4.7-9.5l2.4-4.7l0.8-1.6c1.6-4,4-7.9,5.5-11.9
		C1910.3,1766.6,1908.7,1768.2,1906.3,1770.6 M1185.7,1452.1c-7.9,2.4-17.4,6.3-26.9,10.3c-25.3,10.3-53.7,25.3-79,45.8
		c-3.2,2.4-6.3,5.5-9.5,7.9c-5.5,4.7-10.3,9.5-15,15l-1.6,1.6l-2.4,2.4c-1.6,2.4-4,4-5.5,6.3l-2.4,2.4c-2.4,3.2-4.7,6.3-6.3,9.5
		c-2.4,3.2-4,6.3-6.3,9.5c-15,26.1-23.7,57.7-21.3,95.6v-1.6c0-0.8,0-1.6,0.8-2.4v-0.8c0-0.8,0.8-1.6,0.8-3.2v-0.8
		c0-0.8,0.8-2.4,0.8-4c0-1.6,0.8-2.4,1.6-4v-0.8c0.8-1.6,0.8-3.2,1.6-4.7v-0.8c0.8-1.6,0.8-3.2,1.6-4.7v-0.8
		c0.8-1.6,1.6-3.2,2.4-5.5l0.8-0.8c0.8-1.6,1.6-4,3.2-5.5c1.6-3.2,3.2-5.5,4.7-8.7c0.8-0.8,1.6-2.4,2.4-3.2l0.8-0.8l4.7-7.1
		c1.6-1.6,3.2-4,4.7-5.5l1.6-1.6c1.6-1.6,2.4-3.2,4-4l1.6-1.6c1.6-1.6,4-3.2,5.5-5.5c0,0-34,77.4-19,138.3v-0.8v-1.6v-2.4v-3.2v-4
		c0-1.6,0-3.2,0.8-4.7c0-1.6,0-3.2,0.8-4.7v-0.8c0-1.6,0.8-4,0.8-5.5v-1.6c0.8-2.4,0.8-4,1.6-6.3v-0.8c0.8-2.4,1.6-4.7,1.6-6.3
		c0-0.8,0.8-1.6,0.8-2.4l0.8-1.6c0.8-1.6,1.6-4,2.4-5.5c0.8-2.4,2.4-4.7,4-7.1c0-0.8,0.8-1.6,0.8-1.6l4.7-7.1c0,0-1.6,19-1.6,41.9
		c0,4,0,7.1,0.8,11.1c0,2.4,0,4.7,0.8,7.1c1.6-24.5,6.3-47.4,12.6-68.7c1.6-5.5,4-11.9,5.5-17.4c0-0.8,0.8-1.6,0.8-2.4
		c2.4-5.5,4-10.3,6.3-15.8c0.8-0.8,0.8-1.6,1.6-3.2c2.4-4.7,4.7-10.3,7.1-15c0.8-0.8,0.8-1.6,0.8-2.4c5.5-10.3,11.1-19.8,16.6-28.4
		c0.8-0.8,0.8-1.6,1.6-2.4c2.4-3.2,4.7-6.3,7.1-10.3c0.8-0.8,0.8-1.6,1.6-2.4c0.8-0.8,0.8-1.6,1.6-2.4c3.2-4,5.5-7.9,8.7-11.9
		c0.8-0.8,0.8-1.6,1.6-1.6c3.2-4,6.3-7.9,9.5-11.1c4-4.7,7.9-8.7,11.9-13.4c3.2-3.2,5.5-6.3,8.7-8.7l3.2-3.2
		c6.3-6.3,12.6-12.6,19-18.2c17.4-15.8,31.6-26.1,36.4-29.2c-3.2,0.8-6.3,1.6-10.3,2.4C1199.9,1447.4,1193.6,1449.8,1185.7,1452.1"
		/>
	<path class="st7" d="M1640.8,1280.6c0,0,0-1.6-0.8-4.7c-3.2-11.1-14.2-37.9-57.7-34c-45.8,4.7-61.6,41.9-65.6,54.5
		c-0.8,2.4-0.8,4-0.8,4l1.6,0.8c5.5-4.7,16.6-4.7,26.9,2.4c4.7,3.2,7.9,6.3,11.1,10.3c4,6.3,4.7,12.6,2.4,17.4l-2.4,2.4
		c0,0,1.6,0.8,4.7,1.6c12.6,4,48.2,11.1,67.2-13.4c0.8-1.6,1.6-2.4,2.4-4c-4-1.6-5.5-7.1-5.5-14.2c0-3.2,0.8-6.3,1.6-10.3
		C1628.2,1283.8,1635.3,1278.3,1640.8,1280.6 M1412.5,1618.9c-30,6.3-56.1,11.1-75.9,14.2c0.8,0,2.4,0,3.2,0.8
		c34,4,87.7,9.5,152.5,5.5c118.5-7.1,274.2-44.3,415.7-172.3v-0.8c0.8-11.1-0.8-30-14.2-45c-2.4-2.4-4.7-4.7-7.9-7.1
		c-0.8,0-0.8-0.8-1.6-0.8c-4-2.4-7.1-4-10.3-6.3l-7.1-4.7v-0.8c-8.7,12.6-19,24.5-30,35.6c-4,4-7.9,7.9-12.6,11.9
		c-38.7,34.8-89.3,64.8-143.8,88.5C1590.3,1577,1489.1,1603.1,1412.5,1618.9 M663.3,1412.6c-1.6,0.8-2.4,2.4-4,3.2l-1.6,1.6
		c-1.6,1.6-3.2,3.2-4,4.7l-0.8,0.8l-4.7,7.1l-0.8,0.8c0,0.8-0.8,0.8-0.8,1.6l-2.4,4.7v1.6c-0.8,2.4-2.4,4.7-3.2,7.1
		c-2.4,6.3-4.7,12.6-6.3,18.2c-0.8,1.6-0.8,4-1.6,4.7c-0.8,3.2-1.6,6.3-1.6,7.1v0.8v-0.8c0-2.4,0-4,0.8-6.3c0-4,0.8-8.7,0.8-12.6
		c0-3.2,0.8-7.1,1.6-10.3c0-0.8,0-2.4,0.8-3.2c0-1.6,0.8-3.2,0.8-4.7s0.8-3.2,0.8-4.7v-2.4c0-1.6,0.8-4,0.8-5.5v-4v-1.6
		c0-0.8,0-1.6,0.8-2.4c0.8-2.4,1.6-5.5,1.6-7.9v-0.8c0.8-1.6,0.8-4,1.6-5.5v-0.8c0.8-4,2.4-7.9,3.2-11.9v-1.6c0-0.8,0-1.6,0.8-2.4
		c1.6-6.3,4-12.6,5.5-18.2v-0.8c1.6-4.7,4-10.3,5.5-15v-0.8c0.8-2.4,1.6-4,2.4-6.3c1.6-3.2,2.4-6.3,4-9.5c0-0.8,0.8-2.4,2.4-5.5
		c0.8-0.8,0.8-2.4,1.6-3.2c0.8-1.6,1.6-3.2,2.4-5.5l0.8-1.6c-0.8-0.8-2.4-0.8-3.2-1.6h-0.8l-1.6-0.8c-7.1-3.2-15-6.3-22.9-8.7h-1.6
		c-5.5-1.6-10.3-2.4-15.8-3.2c-3.2,0-6.3-0.8-9.5-0.8h-7.9c-4,0-7.9,0.8-11.9,0.8c-1.6,0-2.4,0-4,0.8c-1.6,0-4,0.8-5.5,0.8
		c-0.8,0-1.6,0-2.4,0.8c-1.6,0-2.4,0.8-4,0.8c-2.4,0.8-5.5,1.6-7.9,2.4c-0.8,0-2.4,0.8-3.2,0.8c-3.2,1.6-7.1,2.4-10.3,4
		c-1.6,0.8-2.4,1.6-4,1.6l-4.7,2.4l-1.6,0.8c-1.6,0.8-3.2,1.6-4.7,3.2c-1.6,0.8-3.2,1.6-4.7,3.2c-1.6,0.8-3.2,2.4-4.7,3.2
		c-0.8,0.8-2.4,1.6-3.2,2.4c-2.4,2.4-5.5,4.7-7.9,7.1l-4,4c-2.4,2.4-4,4.7-6.3,7.1l-0.8,0.8c-0.8,1.6-2.4,2.4-3.2,4l-2.4,2.4
		c-4,5.5-7.9,11.9-11.1,18.2c-0.8,0.8-0.8,1.6-1.6,2.4c-1.6,3.2-2.4,6.3-4,9.5c-0.8,1.6-0.8,2.4-1.6,4c0,0.8,0.8,1.6,0.8,2.4
		c0.8,3.2,1.6,5.5,2.4,8.7v1.6c0.8,2.4,2.4,5.5,3.2,7.9c3.2,7.9,6.3,15,10.3,21.3c0.8,0.8,0.8,1.6,1.6,2.4v0.8l0.8,0.8
		c2.4,4.7,4.7,8.7,7.1,11.9c4,5.5,7.1,9.5,9.5,12.6l1.6,1.6c0,0.8,0.8,0.8,0.8,0.8l1.6,1.6c0-1.6-0.8-3.2-0.8-4
		c-2.4-10.3-3.2-19.8-3.2-30v-1.6c0-6.3,0-12.6,0.8-18.2l2.4,7.1c0.8,3.2,2.4,6.3,3.2,9.5v1.6c4.7,13.4,10.3,24.5,15.8,33.2
		c6.3,11.1,11.9,18.2,15.8,22.9c0.8,0.8,1.6,1.6,1.6,2.4l1.6,1.6c-2.4-11.1-4-21.3-4-31.6v-10.3c0-4.7,0-8.7,0.8-12.6
		c1.6,7.1,4,14.2,6.3,20.5v0.8c8.7,22.9,19,39.5,26.1,49.8l0.8,0.8c1.6,1.6,2.4,3.2,3.2,4.7c0.8,0.8,1.6,1.6,1.6,2.4l1.6,1.6
		l0.8,0.8v-1.6c0-1.6-0.8-3.2-0.8-4.7c-0.8-5.5-1.6-11.1-2.4-15.8c0-3.2-0.8-7.1-0.8-10.3v-9.5v-1.6v-6.3c0-4,0.8-8.7,0.8-12.6
		c0.8,2.4,1.6,5.5,2.4,7.9c0.8,1.6,1.6,4,2.4,5.5v0.8l0.8,0.8c0.8,2.4,1.6,4.7,2.4,6.3c1.6,4,3.2,7.9,5.5,11.1
		c2.4,4.7,4,8.7,6.3,11.9c1.6,2.4,2.4,4,3.2,5.5c1.6,2.4,3.2,4.7,4,6.3c1.6,1.6,2.4,3.2,3.2,4.7l0.8,0.8c0.8,1.6,2.4,2.4,3.2,4
		c0.8,0.8,1.6,1.6,1.6,2.4c1.6,1.6,2.4,3.2,3.2,3.2l0.8,0.8v-2.4c0.8-6.3,1.6-13.4,2.4-19.8v-2.4c0.8-7.9,2.4-15,4-22.1
		c0-0.8,0-1.6,0.8-3.2v-0.8c0-0.8,0-1.6,0.8-2.4c0-1.6,0.8-2.4,0.8-4c0.8-5.5,2.4-11.1,3.2-16.6c0.8-4.7,1.6-9.5,2.4-13.4v-1.6
		c0-0.8,0-1.6,0.8-1.6v-1.6c0-0.8,0.8-2.4,0.8-3.2c0-0.8,0-1.6,0.8-2.4c0-1.6,0.8-3.2,0.8-4s0.8-2.4,0.8-3.2c0-1.6,0.8-3.2,0.8-4
		s0-1.6,0.8-2.4c0-0.8,0-1.6,0.8-1.6c0-1.6,0.8-2.4,0.8-3.2v-2.4L663.3,1412.6 M1621.1,1742.9c11.1-4,20.5-7.1,28.4-10.3
		c15-6.3,22.9-11.1,22.9-12.6c-0.8-1.6-9.5-0.8-25.3,3.2c-7.9,1.6-17.4,3.2-29.2,6.3c-5.5,1.6-11.9,2.4-18.2,3.2
		c-6.3,0.8-13.4,2.4-20.5,3.2c-14.2,2.4-30,4-47.4,5.5l-26.1,2.4c-8.7,0.8-18.2,0.8-27.7,1.6c-37.9,0.8-79.8-0.8-122.5-8.7
		c-22.1-4-52.9-14.2-74.3-26.1l-0.8-0.8c12.6-45,60.1-51.4,60.1-51.4l-1.6-0.8h-2.4c-7.1-0.8-12.6-1.6-18.2-2.4
		c-4-0.8-7.1-0.8-9.5-1.6c-2.4,0-4.7-0.8-5.5-0.8c-28.4-1.6-44.3,22.1-49,32.4l-2.4,4.7c-4,9.5-7.1,19.8-7.9,31.6
		c-1.6,21.3,4,44.3,20.5,64c11.1,13.4,30,25.3,54.5,34.8c-21.3-13.4-40.3-39.5-41.1-79.8c24.5,10.3,52.2,16.6,73.5,20.5
		c45,8.7,89.3,9.5,128,7.1c9.5-0.8,19.8-1.6,28.4-2.4c9.5-1.6,18.2-2.4,26.9-3.2c17.4-3.2,32.4-5.5,47.4-8.7
		c7.1-1.6,14.2-3.2,20.5-5.5C1610,1746.9,1615.5,1745.3,1621.1,1742.9"/>
</g>
<g>
	<path class="st0" d="M1583.9,1215.1c23.7,0.8,39.5,7.9,50.6,19c2.4-10.3,4-22.9,3.2-37.1c-0.8-15-4-28.4-8.7-38.7
		c-1.6-6.3-11.1-22.9-22.9-22.1c-15,0.8-26.1,30-23.7,64.8C1582.4,1205.6,1583.1,1210.3,1583.9,1215.1 M1623.4,1304.4
		c0,6.3,2.4,11.9,5.5,14.2c5.5,3.2,12.6-3.2,15.8-13.4c0-0.8,0.8-1.6,0.8-2.4c2.4-9.5,0-19-5.5-21.3c-5.5-3.2-12.6,3.2-15.8,13.4
		C1624.2,1298,1623.4,1301.2,1623.4,1304.4 M1516,1321.7c2.4,4,6.3,7.9,11.1,11.1c10.3,6.3,21.3,7.1,27.7,1.6l2.4-2.4
		c2.4-4.7,1.6-11.1-2.4-17.4c-2.4-4-6.3-7.9-11.1-10.3c-10.3-6.3-21.3-7.1-26.9-2.4c-0.8,0.8-1.6,1.6-2.4,3.2
		C1512,1309.1,1512.8,1315.4,1516,1321.7 M1908.7,1466.4C1907.9,1466.4,1907.9,1466.4,1908.7,1466.4 M1896.1,1685.2
		c-15,14.2-31.6,27.7-50.6,40.3c-81.4,55.3-195.2,98.8-275.8,109.1c-60.8,9.5-120.1,11.1-171.5,4.7c-30-4-56.1-10.3-79-19
		c-24.5-9.5-43.5-21.3-54.5-34.8c-16.6-19.8-21.3-43.5-20.5-64c0.8-11.1,3.2-22.1,7.9-31.6l2.4-4.7c5.5-10.3,20.5-34.8,49-32.4
		c0.8,0,3.2,0,5.5,0.8c2.4,0,6.3,0.8,9.5,1.6c5.5,0.8,11.1,1.6,18.2,2.4h2.4c78.2,9.5,153.3,8.7,224.4-2.4
		c103.5-15.8,199.1-52.9,284.5-110.6c4.7-3.2,8.7-6.3,13.4-9.5l46.6-69.5c-141.5,128.8-297.1,165.9-415.7,173.1
		c-64.8,4-118.5-0.8-152.5-5.5c-1.6,0-2.4,0-3.2-0.8c-10.3-1.6-18.2-2.4-24.5-3.2c-3.2,0-5.5-0.8-7.1-0.8
		c-8.7-0.8-17.4,0.8-25.3,3.2c-15.8,4.7-30,15.8-40.3,30c-12.6,17.4-20.5,41.1-20.5,64.8c0,19.8,4.7,40.3,15,59.3
		c0.8,0.8,0.8,1.6,1.6,2.4c1.6,2.4,2.4,4,4,6.3c1.6,2.4,4,5.5,6.3,7.9c24.5,30.8,78.2,52.9,149.4,62.4c48.2,6.3,104.3,5.5,165.2-3.2
		c180.2-32.4,265.5-90.9,305-131.2c3.2-3.2,5.5-5.5,7.9-8.7c14.2-16.6,20.5-29.2,22.9-34v-0.8c0.8-1.6,0.8-2.4,0.8-2.4
		L1896.1,1685.2"/>
</g>
<g>
	<path class="st8" d="M1323.2,1061c-5.5-3.2-11.9-5.5-18.2-7.1c-4-0.8-7.9-1.6-12.6-2.4c-1.6,0-3.2,0-4.7-0.8
		c-21.3-1.6-39.5,1.6-39.5,1.6c-4,0.8-7.9,1.6-11.1,3.2c-28.4,8.7-48.2,23.7-62.4,41.1c-11.1,14.2-19,29.2-22.9,44.3
		c-0.8,1.6-0.8,2.4-0.8,4c-0.8,4-2.4,7.9-3.2,11.1c-2.4,12.6-4,23.7-4,33.2c0,12.6,0.8,20.5,0.8,20.5c4.7-11.1,10.3-20.5,15.8-30
		c13.4-22.9,27.7-41.9,42.7-56.9c28.4-29.2,57.7-45,79.8-52.9C1306.6,1061.8,1323.2,1061,1323.2,1061 M1665.3,1020.7l-0.8-1.6
		c-3.2-4-7.1-7.9-11.9-11.1c-11.1-7.1-26.1-11.1-46.6-7.1c0,0-24.5,5.5-38.7,22.1c0,0,42.7-18.2,88.5,14.2c4,3.2,8.7,6.3,12.6,10.3
		c4,4,8.7,7.9,12.6,13.4c0,0-1.6-19.8-13.4-37.1C1666.9,1022.2,1666.1,1021.5,1665.3,1020.7"/>
</g>
<path class="st0" d="M1328.7,1335.2c16.6-4.7,34-9.5,53.7-14.2c3.2-15,4-33.2,1.6-52.9c-5.5-45.8-26.1-81.4-46.6-79
	c-20.5,2.4-32.4,41.9-26.9,87.7C1313.7,1300.4,1320,1320.9,1328.7,1335.2"/>
<path class="st9" d="M1234.7,302.3l-42.7,9.5l8.7,77.4l-113-57.7l-46.6,14.2l0.8,0.8l137.5,156.5l1.6-0.8l1.6-0.8
	c4-2.4,8.7-5.5,12.6-7.9c1.6-0.8,3.2-1.6,4.7-3.2c6.3-4,12.6-7.9,19-11.1l-58.5-67.2l94,45.8c3.2-1.6,5.5-3.2,8.7-4.7l-8.7-67.2
	l42.7,49.8h0.8c4-1.6,7.1-4,11.1-5.5l1.6-0.8l1.6-0.8c0.8,0,1.6-0.8,1.6-0.8l4.7-2.4c0,0,0.8,0,0.8-0.8c4.7-2.4,10.3-4.7,15-7.1
	L1234.7,302.3"/>
<g>
	<path class="st5" d="M1192.8,314.2v-2.4V314.2 M1192.8,311.8l6.3-1.6c-10.3-4.7-22.9-7.9-37.1-10.3c-28.4-4-64.8,0-105.9,10.3
		s-87.7,28.4-136.7,52.9c-98.8,49-207.8,124.1-313.7,220.5c-37.1,33.2-71.1,68-102.7,101.9l128,158c34.8-37.9,71.9-75.9,113-113
		c54.5-49.8,109.8-94,164.4-132c52.9-37.1,105.9-68.7,155.7-94l-22.1-101.1l0.8-56.9l-0.8-0.8l46.6-14.2l90.9,46.6l-2.4-31.6
		L1192.8,311.8"/>
</g>
<g>
	<path class="st1" d="M1192.8,311.8l-15.8,34.8l2.4,32.4l22.1,11.1L1192.8,311.8z M1160.4,412.2l94.8,46.6l-36.4,20.5L1160.4,412.2z
		 M1255.2,386.1l8.7,67.2l34-17.4L1255.2,386.1z"/>
</g>
<path class="st6" d="M1612.4,361.6h17.4c15.8,0,30.8,2.4,45,5.5c0.8,0,1.6,0,2.4,0.8h0.8l1.6,0.8h1.6c-1.6-0.8-3.2-2.4-4.7-3.2
	c-15.8-6.3-32.4-10.3-49.8-12.6c-85.3-11.1-183.3,20.5-238.6,42.7c-3.2,1.6-6.3,2.4-9.5,4c-4.7,2.4-9.5,4-14.2,6.3
	c-7.9,3.2-15.8,7.1-24.5,11.1c-1.6,0.8-2.4,0.8-4,1.6c-4.7,2.4-10.3,4.7-15,7.1c0,0-0.8,0-0.8,0.8l-4.7,2.4c-0.8,0-1.6,0.8-1.6,0.8
	h-3.2l-0.8,0.8c-4,1.6-7.1,3.2-11.1,5.5h-0.8c-0.8,0.8-1.6,0.8-2.4,1.6h-0.8c-0.8,0-1.6,0.8-1.6,0.8c-5.5,3.2-11.1,5.5-16.6,8.7
	c-4,2.4-7.9,4-11.9,6.3h-0.8c-3.2,1.6-5.5,3.2-8.7,4.7c-9.5,4.7-18.2,10.3-27.7,15.8c-0.8,0.8-1.6,0.8-3.2,1.6
	c-0.8,0.8-1.6,0.8-2.4,1.6c-0.8,0.8-1.6,0.8-2.4,1.6l-0.8,0.8c-6.3,4-12.6,7.1-19,11.1c-1.6,0.8-3.2,1.6-4.7,3.2
	c-4,2.4-8.7,5.5-12.6,7.9l-1.6,0.8l-1.6,0.8l-35.6,23.7c-19.8,13.4-38.7,26.9-57.7,41.1c-2.4,1.6-4.7,4-7.1,5.5
	c-49.8,37.1-97.2,77.4-143,118.5c-48.2,44.3-94.8,89.3-138.3,135.1c-23.7,23.7-44.3,45-60.1,62.4C704.4,925,686.2,947.2,687,948
	c0,0,3.2-2.4,8.7-7.9c-4,4.7-8.7,10.3-12.6,15c72.7-77.4,152.5-156.5,238.6-230.7c52.2-45,106.7-88.5,162.8-128.8
	c24.5-17.4,49.8-34.8,75.1-51.4c7.9-5.5,16.6-10.3,24.5-15.8c4-2.4,7.9-4.7,12.6-7.1c2.4-1.6,4.7-3.2,7.1-4
	c4.7-2.4,8.7-5.5,13.4-7.9c4-2.4,8.7-4.7,12.6-7.9c2.4-1.6,4.7-2.4,7.1-4l16.6-9.5c3.2-1.6,6.3-4,9.5-5.5
	c10.3-5.5,20.5-11.1,31.6-16.6c0.8-0.8,1.6-0.8,2.4-1.6l4.7-2.4c2.4-0.8,4-2.4,6.3-3.2c0.8-0.8,1.6-0.8,2.4-1.6l4.7-2.4
	c0,0,0.8,0,0.8-0.8h0.8c4.7-2.4,9.5-4.7,13.4-6.3c0.8,0,1.6-0.8,2.4-1.6l4.7-2.4c5.5-2.4,10.3-4.7,15.8-7.1c1.6-0.8,3.2-1.6,4-2.4
	c0.8,0,1.6-0.8,2.4-0.8c1.6-0.8,3.2-1.6,4.7-1.6c6.3-2.4,11.9-5.5,18.2-7.9c5.5-2.4,10.3-4.7,15.8-7.1c30-12.6,57.7-22.9,83.8-31.6
	C1531,371.9,1574.4,363.2,1612.4,361.6"/>
</svg>
