<?xml version="1.0" encoding="utf-8"?>
<svg width="124px" height="124px" version="1.0" id="katman_1" xmlns="http://www.w3.org/2000/svg" xmlns:xlink="http://www.w3.org/1999/xlink" x="0px" y="0px"
	 viewBox="0 0 600 450" style="enable-background:new 0 0 600 450;" xml:space="preserve">
<style type="text/css">
	.st0{fill:#010202;}
	.st1{fill:#3F7EC1;}
</style>
<path class="st0" d="M160.7,182.6c-24.2,0-40.5,13.9-40.5,41.4v16.8c2.5-1.1,5.2-1.8,7.9-1.9c2.8-0.1,5.5,0.6,7.9,1.9V224
	c0-17.7,9.8-27,24.7-27c14.9,0,24.7,9.3,24.7,27v42.8h15.8V224C201.2,196.5,184.9,182.6,160.7,182.6"/>
<path class="st0" d="M209.6,225.8c0-25.1,18.1-43.3,44.2-43.3s43.6,18.1,43.6,43.3v5.6h-71c1.9,13.6,13.8,23.5,27.4,22.8
	c10.7,0,18.2-3.2,22.8-10.2h17.4c-7,15.9-23.1,25.9-40.5,25.1c-23.1,1-42.6-17-43.6-40.1c0-1.1,0-2.1,0-3.2 M281.3,217.5
	c-3-12.6-14.5-21.2-27.4-20.5c-12.8-0.7-24.2,8-27,20.5H281.3z"/>
<path class="st0" d="M306.4,225.8c0-25.1,18.2-43.3,44.2-43.3c23.5-0.9,43.2,17.4,44.1,40.8c0,0.8,0,1.6,0,2.4
	c0,25.1-18.1,43.3-44.2,43.3C324.6,269.1,306.4,251,306.4,225.8 M378.5,225.8c0.9-14.8-10.4-27.5-25.2-28.4c-1-0.1-2.1-0.1-3.1,0
	c-15.1-0.5-27.7,11.4-28.2,26.5c0,0.6,0,1.3,0,1.9c-0.9,14.8,10.4,27.5,25.2,28.4c1,0.1,2.1,0.1,3.1,0c17.4,0.5,28.4-11.6,28.4-28.4
	"/>
<path class="st0" d="M485,283.5h1.9c10.2,0,13.9-4.7,13.9-16.3v-79.1h15.8v78.1c0,20.5-7.9,30.7-28.4,30.7H485L485,283.5z"/>
<path class="st0" d="M477.1,274.7h-15.8v-19.5h-40c-7.5,0.3-14.6-3.6-18.2-10.2c-3-6.1-2.1-13.4,2.4-18.6l35.8-47
	c5.1-7,14.2-9.8,22.3-7c8.1,2.6,13.5,10.1,13.5,18.6v50.2h9.3v14h-9.3V274.7z M418.5,235.2c-0.6,0.6-0.9,1.4-1,2.3
	c0,2.4,2,4.4,4.4,4.4h39.4v-50.9c0-2.8-1.8-3.7-2.8-3.7h-1.6c-1.3,0-2.5,0.7-3.3,1.8L418.5,235.2z"/>
<path class="st1" d="M508.8,151.9c-7.5,0-13.5,6-13.5,13.5c0,7.5,6,13.5,13.5,13.5c7.5,0,13.5-6,13.5-13.5c0,0,0,0,0,0
	C522.3,157.9,516.2,151.9,508.8,151.9"/>
<path class="st1" d="M127.3,246.8c-2.9-0.2-5.8,0.8-7.9,2.8l-14.9-9.8c0.4-1.2,0.6-2.4,0.5-3.7c0-7.5-6-13.5-13.5-13.5
	c-7.5,0-13.5,6-13.5,13.5c0,7.5,6,13.5,13.5,13.5c2.9,0.1,5.8-0.9,7.9-2.8l14.9,10.2c-0.4,1.2-0.6,2.4-0.5,3.7
	c-0.1,1.3,0.1,2.5,0.5,3.7l-14.9,10.2c-2.3-1.8-5-2.8-7.9-2.8c-7.5,0-13.5,6-13.5,13.5c0,7.5,6,13.5,13.5,13.5s13.5-6,13.5-13.5
	c0.1-1.3-0.1-2.5-0.5-3.7l14.9-10.2c2.3,1.8,5.1,2.8,7.9,2.8c7.4,0,13.5-6,13.5-13.5c0,0,0,0,0,0C140.8,253.2,134.8,247,127.3,246.8
	"/>
</svg>
