<svg width="124px" height="124px" id="svg" version="1.1" xmlns="http://www.w3.org/2000/svg" xmlns:xlink="http://www.w3.org/1999/xlink" viewBox="0, 0, 400,400"><g id="svgg"><path id="path0" d="M195.924 39.749 C 194.023 40.710,191.628 42.064,190.602 42.757 C 189.575 43.450,187.984 44.398,187.067 44.862 C 186.150 45.327,185.310 45.840,185.200 46.001 C 185.090 46.163,184.010 46.823,182.800 47.468 C 181.590 48.114,180.150 48.931,179.600 49.286 C 179.050 49.640,177.667 50.441,176.527 51.065 C 172.041 53.521,166.085 57.005,163.846 58.482 C 162.551 59.336,160.931 60.295,160.246 60.614 C 159.560 60.932,158.100 61.730,157.000 62.387 C 155.900 63.044,154.460 63.881,153.800 64.247 C 153.140 64.612,152.510 65.035,152.400 65.187 C 152.290 65.338,150.580 66.276,148.600 67.271 C 145.346 68.906,142.563 70.553,141.350 71.563 C 141.103 71.769,139.843 72.500,138.550 73.188 C 137.258 73.875,135.210 75.051,134.000 75.800 C 132.790 76.548,130.900 77.643,129.800 78.233 C 128.700 78.823,127.710 79.439,127.600 79.602 C 127.490 79.765,125.895 80.654,124.054 81.577 C 122.214 82.500,120.271 83.692,119.736 84.227 C 119.201 84.762,118.457 85.200,118.082 85.201 C 117.707 85.201,116.140 86.030,114.600 87.043 C 113.060 88.056,111.080 89.249,110.200 89.696 C 109.320 90.142,108.510 90.640,108.400 90.802 C 108.290 90.964,107.030 91.683,105.600 92.400 C 104.170 93.117,102.910 93.832,102.800 93.990 C 102.690 94.148,100.530 95.415,98.000 96.807 C 93.305 99.390,90.182 101.254,89.315 101.991 C 89.048 102.218,88.373 102.612,87.815 102.866 C 87.257 103.120,86.800 103.456,86.800 103.612 C 86.800 103.768,85.765 104.348,84.500 104.901 C 83.235 105.455,81.767 106.288,81.239 106.754 C 80.710 107.219,79.987 107.600,79.632 107.600 C 79.020 107.600,76.029 109.405,75.599 110.033 C 75.488 110.195,74.588 110.650,73.599 111.045 C 72.609 111.440,71.080 112.243,70.200 112.831 C 66.424 115.352,64.108 116.746,62.767 117.305 C 61.979 117.634,60.943 118.400,60.465 119.008 L 59.596 120.114 59.783 189.557 C 59.887 227.751,60.078 262.870,60.209 267.600 C 60.378 273.718,60.310 276.620,59.973 277.657 C 59.443 279.292,60.639 282.168,62.035 282.611 C 62.415 282.732,63.328 283.361,64.063 284.009 C 64.799 284.657,65.693 285.190,66.051 285.194 C 66.409 285.197,66.924 285.468,67.196 285.795 C 67.467 286.122,69.244 287.134,71.145 288.043 C 73.045 288.953,74.690 289.831,74.800 289.996 C 74.910 290.160,75.900 290.777,77.000 291.367 C 78.100 291.957,79.990 293.052,81.200 293.801 C 82.410 294.551,84.156 295.548,85.080 296.017 C 86.003 296.485,86.970 297.123,87.229 297.434 C 87.487 297.746,88.023 298.000,88.420 298.000 C 88.818 298.000,89.381 298.234,89.671 298.519 C 89.962 298.805,91.190 299.589,92.400 300.262 C 99.939 304.453,105.070 307.431,105.529 307.881 C 105.819 308.166,106.287 308.400,106.569 308.400 C 106.850 308.400,107.782 308.903,108.640 309.519 C 109.498 310.134,110.830 310.892,111.600 311.204 C 112.370 311.516,113.756 312.345,114.681 313.047 C 115.605 313.750,117.564 314.892,119.034 315.587 C 120.504 316.281,121.995 317.137,122.347 317.490 C 122.699 317.842,123.980 318.580,125.194 319.131 C 126.407 319.681,127.502 320.284,127.626 320.470 C 127.870 320.835,131.081 322.634,134.000 324.041 C 134.990 324.519,136.330 325.290,136.977 325.755 C 138.295 326.702,141.819 328.703,146.600 331.220 C 148.360 332.146,150.309 333.331,150.931 333.852 C 151.553 334.373,152.305 334.800,152.602 334.800 C 152.900 334.800,153.438 335.095,153.798 335.455 C 154.455 336.112,155.838 336.902,161.800 340.025 C 163.560 340.947,165.090 341.834,165.200 341.997 C 165.310 342.159,166.199 342.698,167.175 343.193 C 168.151 343.688,169.224 344.367,169.559 344.702 C 169.894 345.037,170.805 345.576,171.584 345.901 C 172.363 346.225,173.090 346.624,173.200 346.789 C 173.310 346.953,174.930 347.878,176.800 348.844 C 178.670 349.810,180.618 350.959,181.130 351.398 C 181.641 351.837,182.899 352.526,183.925 352.929 C 184.951 353.332,185.883 353.805,185.995 353.979 C 186.108 354.154,187.356 354.878,188.769 355.589 C 190.182 356.300,191.620 357.162,191.963 357.506 C 192.306 357.849,193.579 358.584,194.790 359.139 C 196.002 359.693,197.443 360.564,197.993 361.074 C 199.479 362.452,204.600 361.057,207.051 358.606 C 207.334 358.323,209.149 357.237,211.083 356.194 C 213.017 355.151,214.696 354.147,214.814 353.964 C 214.932 353.781,215.922 353.238,217.014 352.758 C 218.106 352.278,220.170 351.133,221.600 350.214 C 224.383 348.425,228.168 346.219,232.140 344.068 C 233.493 343.336,234.870 342.504,235.200 342.220 C 235.780 341.721,236.865 341.095,242.400 338.067 C 243.830 337.285,245.090 336.522,245.200 336.372 C 245.310 336.222,246.930 335.312,248.800 334.349 C 250.670 333.387,252.549 332.285,252.975 331.900 C 253.402 331.515,253.884 331.200,254.046 331.200 C 254.478 331.200,260.750 327.307,261.456 326.601 C 261.787 326.271,262.377 326.000,262.768 326.000 C 263.160 326.000,264.272 325.463,265.240 324.807 C 266.208 324.151,267.197 323.611,267.438 323.607 C 267.679 323.603,268.202 323.240,268.600 322.800 C 268.998 322.360,269.490 322.000,269.693 322.000 C 270.093 322.000,277.672 317.586,278.000 317.162 C 278.110 317.020,279.370 316.317,280.800 315.600 C 282.230 314.883,283.496 314.147,283.614 313.965 C 283.731 313.782,284.811 313.167,286.014 312.598 C 288.877 311.244,289.852 310.673,290.987 309.686 C 291.503 309.238,292.737 308.511,293.730 308.072 C 294.723 307.633,296.585 306.564,297.868 305.696 C 299.151 304.829,301.640 303.337,303.400 302.382 C 305.160 301.427,306.690 300.524,306.800 300.375 C 306.910 300.225,308.080 299.544,309.400 298.860 C 310.720 298.176,313.150 296.810,314.800 295.826 C 316.450 294.841,318.679 293.563,319.753 292.984 C 320.827 292.406,321.907 291.755,322.153 291.536 C 323.361 290.465,330.150 286.800,330.927 286.800 C 331.229 286.800,331.799 286.443,332.194 286.007 C 332.589 285.570,333.881 284.666,335.065 283.998 C 336.248 283.330,337.935 282.022,338.812 281.092 L 340.407 279.400 340.230 243.800 C 340.133 224.220,340.053 207.345,340.054 206.300 C 340.112 127.114,339.898 118.002,337.973 117.391 C 337.588 117.269,336.672 116.641,335.937 115.995 C 335.201 115.349,333.610 114.429,332.400 113.951 C 331.190 113.472,330.020 112.880,329.800 112.635 C 329.126 111.883,327.261 110.800,326.643 110.800 C 326.321 110.800,325.808 110.551,325.503 110.246 C 325.199 109.942,324.151 109.287,323.175 108.790 C 322.199 108.294,320.410 107.218,319.200 106.399 C 317.148 105.011,315.083 103.834,311.031 101.745 C 310.119 101.274,309.131 100.599,308.837 100.245 C 308.543 99.890,308.019 99.600,307.673 99.600 C 307.326 99.600,306.403 99.176,305.622 98.657 C 303.481 97.237,301.956 96.356,295.418 92.765 C 292.128 90.958,289.248 89.324,289.018 89.134 C 287.848 88.168,285.498 86.800,285.011 86.800 C 284.706 86.800,284.206 86.549,283.900 86.243 C 283.594 85.937,282.456 85.208,281.372 84.624 C 280.287 84.039,278.410 82.946,277.200 82.195 C 275.990 81.443,274.640 80.660,274.200 80.454 C 273.760 80.248,272.717 79.612,271.882 79.040 C 271.047 78.468,270.220 78.000,270.044 78.000 C 269.868 78.000,269.398 77.640,269.000 77.200 C 268.602 76.760,268.009 76.400,267.682 76.400 C 267.356 76.400,266.211 75.860,265.138 75.200 C 264.066 74.540,262.934 74.000,262.623 74.000 C 262.312 74.000,261.819 73.769,261.529 73.488 C 260.867 72.846,259.276 71.898,252.000 67.810 C 244.525 63.609,243.782 63.179,242.137 62.100 C 241.382 61.605,240.537 61.200,240.259 61.200 C 239.982 61.200,239.201 60.742,238.526 60.182 C 237.373 59.227,236.055 58.443,232.200 56.419 C 231.320 55.957,229.610 54.962,228.400 54.209 C 227.190 53.455,225.358 52.384,224.328 51.827 C 223.299 51.271,222.343 50.632,222.205 50.408 C 222.066 50.183,221.640 50.000,221.258 50.000 C 220.875 50.000,220.211 49.718,219.781 49.373 C 218.812 48.595,215.979 46.963,211.800 44.775 C 210.040 43.853,208.510 42.977,208.400 42.828 C 208.008 42.295,200.063 38.000,199.471 38.000 C 199.420 38.000,197.824 38.787,195.924 39.749 M215.600 59.520 C 221.870 63.163,233.390 69.865,241.200 74.414 C 249.010 78.963,257.110 83.677,259.200 84.889 C 261.290 86.101,267.950 89.969,274.000 93.484 C 280.050 96.999,290.580 103.115,297.400 107.074 C 304.220 111.034,313.760 116.574,318.600 119.387 C 323.440 122.199,327.715 124.776,328.100 125.112 C 329.012 125.910,329.210 274.776,328.300 275.499 C 327.842 275.863,311.211 285.608,280.000 303.801 C 273.290 307.712,261.410 314.649,253.600 319.215 C 245.790 323.782,230.595 332.656,219.834 338.934 L 200.268 350.349 198.643 349.520 C 197.749 349.064,196.384 348.287,195.609 347.793 C 194.834 347.300,189.430 344.142,183.600 340.776 C 177.770 337.409,169.850 332.823,166.000 330.583 C 162.150 328.343,152.880 322.951,145.400 318.600 C 137.920 314.249,128.020 308.486,123.400 305.794 C 118.780 303.102,111.580 298.925,107.400 296.511 C 87.021 284.742,72.532 276.244,71.900 275.690 C 70.988 274.890,70.790 126.025,71.700 125.299 C 72.117 124.966,101.295 107.896,146.400 81.597 C 151.570 78.583,165.697 70.337,177.793 63.272 L 199.785 50.428 201.993 51.663 C 203.207 52.342,209.330 55.878,215.600 59.520 M149.264 95.630 C 131.158 97.979,123.846 122.667,131.217 156.564 C 132.080 160.528,131.956 160.973,129.872 161.423 C 122.170 163.087,105.460 171.240,97.498 177.219 C 70.878 197.206,82.078 222.165,124.400 237.168 C 132.676 240.102,132.141 239.805,131.867 241.314 C 129.352 255.162,128.808 260.032,128.804 268.755 C 128.781 311.186,158.966 317.425,196.908 282.833 C 200.632 279.438,200.680 279.433,203.604 282.140 C 225.006 301.954,247.981 309.893,260.285 301.726 C 271.603 294.214,275.364 272.378,270.012 245.258 C 269.563 242.979,269.118 240.991,269.024 240.839 C 268.647 240.228,269.568 239.698,273.200 238.433 C 331.984 217.964,332.812 183.442,275.016 162.753 C 268.093 160.274,268.579 160.878,269.536 155.946 C 281.542 94.118,250.715 76.278,203.740 117.868 C 200.181 121.020,200.564 121.061,195.903 117.019 C 181.736 104.735,167.675 97.143,156.271 95.618 C 152.837 95.159,152.897 95.159,149.264 95.630 M159.600 107.206 C 167.519 109.377,178.704 116.255,189.700 125.715 C 192.984 128.540,192.978 128.290,189.836 131.620 C 186.471 135.187,180.525 142.355,176.579 147.600 C 174.841 149.910,173.235 151.937,173.010 152.104 C 172.448 152.520,171.896 152.617,164.704 153.570 C 159.605 154.246,151.311 155.768,143.540 157.454 C 142.291 157.725,142.340 157.838,141.211 152.079 C 137.173 131.479,139.320 112.731,146.276 107.856 C 149.194 105.812,153.710 105.592,159.600 107.206 M253.228 107.100 C 260.432 110.749,263.495 127.722,260.394 146.800 C 258.505 158.422,258.836 157.881,254.261 156.814 C 249.214 155.637,238.508 153.767,233.600 153.205 C 227.920 152.554,227.813 152.493,224.453 147.968 C 221.051 143.387,216.015 137.301,211.528 132.347 C 207.754 128.182,207.760 128.396,211.326 125.322 C 229.234 109.879,245.097 102.981,253.228 107.100 M204.541 140.601 C 208.912 145.472,213.284 150.850,213.057 151.076 C 212.831 151.302,187.893 151.227,187.666 150.999 C 187.163 150.497,199.569 136.335,200.376 136.491 C 200.693 136.552,202.567 138.401,204.541 140.601 M211.841 162.206 C 221.397 162.482,221.868 162.581,223.297 164.629 C 229.201 173.088,240.226 192.273,242.971 198.863 L 243.580 200.327 240.222 207.063 C 234.450 218.640,223.294 237.171,221.736 237.769 C 219.010 238.815,181.756 238.835,179.146 237.792 C 176.891 236.890,157.600 203.363,157.600 200.345 C 157.600 198.198,169.203 177.070,175.776 167.247 C 178.371 163.369,178.728 163.001,180.182 162.703 C 181.978 162.335,199.257 161.658,202.000 161.849 C 202.990 161.917,207.419 162.078,211.841 162.206 M164.255 165.142 C 164.177 165.284,162.494 168.100,160.514 171.400 C 158.533 174.700,155.853 179.422,154.557 181.892 C 151.852 187.048,151.597 187.191,150.446 184.200 C 147.124 175.565,145.012 168.828,145.479 168.361 C 146.690 167.150,164.858 164.035,164.255 165.142 M243.600 165.620 C 252.887 167.288,255.200 167.958,255.200 168.980 C 255.200 170.981,249.680 186.490,249.041 186.287 C 248.798 186.211,248.082 185.170,247.450 183.974 C 245.028 179.399,240.571 171.662,238.501 168.441 C 236.312 165.036,236.245 164.364,238.126 164.657 C 238.607 164.732,241.070 165.165,243.600 165.620 M134.644 171.672 C 134.805 171.931,135.962 175.216,137.216 178.972 C 138.471 182.727,140.797 189.016,142.386 192.947 C 144.108 197.207,145.196 200.439,145.079 200.947 C 144.971 201.416,143.772 204.500,142.415 207.800 C 141.059 211.100,138.810 217.213,137.418 221.385 C 134.508 230.110,135.009 229.627,130.490 228.073 C 108.571 220.537,93.619 209.269,93.604 200.275 C 93.590 191.735,107.120 181.087,127.798 173.367 C 133.992 171.054,134.227 170.996,134.644 171.672 M272.576 173.244 C 293.052 180.683,307.314 191.734,307.314 200.160 C 307.314 209.187,292.282 220.519,270.266 228.088 C 265.894 229.591,266.306 229.983,263.660 221.800 C 262.521 218.280,260.409 212.520,258.965 209.000 C 255.154 199.710,255.246 200.167,256.580 197.143 C 259.173 191.264,260.498 187.726,263.448 178.800 C 264.648 175.170,265.708 171.975,265.803 171.700 C 266.065 170.939,266.518 171.043,272.576 173.244 M194.800 178.974 C 178.514 183.517,173.109 203.864,185.022 215.778 C 198.203 228.959,220.259 220.755,222.187 201.954 C 223.659 187.594,208.748 175.082,194.800 178.974 M154.201 218.089 C 155.253 220.130,157.995 224.917,160.296 228.727 C 162.596 232.538,164.396 235.737,164.296 235.837 C 163.963 236.170,151.711 233.981,147.100 232.765 C 145.494 232.341,145.192 231.483,145.958 229.519 C 146.155 229.013,147.081 226.260,148.016 223.400 C 151.487 212.780,151.472 212.793,154.201 218.089 M250.727 217.100 C 253.642 224.728,255.672 231.700,255.127 232.211 C 254.398 232.895,236.997 236.331,236.547 235.880 C 236.427 235.761,238.100 232.719,240.265 229.120 C 242.429 225.522,245.190 220.650,246.400 218.294 C 249.029 213.175,249.208 213.125,250.727 217.100 M154.000 245.239 C 156.310 245.670,161.434 246.481,165.388 247.042 C 173.950 248.256,172.302 247.332,177.262 253.706 C 181.803 259.542,187.787 266.634,190.953 269.933 L 193.000 272.066 191.000 273.867 C 171.441 291.478,152.497 298.954,145.438 291.848 C 140.757 287.136,138.525 276.041,139.544 262.546 C 140.016 256.302,141.595 245.918,142.391 243.824 L 142.751 242.876 146.276 243.666 C 148.214 244.100,151.690 244.808,154.000 245.239 M258.300 243.300 C 258.518 243.575,258.977 245.150,259.319 246.800 C 263.680 267.844,261.901 286.608,255.005 292.291 C 248.135 297.955,231.411 291.722,213.831 276.945 C 207.538 271.656,207.732 272.297,211.273 268.508 C 214.899 264.629,220.083 258.386,224.484 252.600 C 228.311 247.570,227.257 248.068,236.800 246.776 C 242.213 246.042,251.746 244.281,256.000 243.228 C 257.943 242.747,257.858 242.745,258.300 243.300 M213.200 249.583 C 213.200 250.442,201.331 264.000,200.580 264.000 C 199.718 264.000,188.026 250.782,188.008 249.786 C 188.003 249.510,192.194 249.363,200.600 249.345 C 207.530 249.331,213.200 249.438,213.200 249.583 " stroke="none" fill="#65daf8" fill-rule="evenodd"></path><path id="path1" d="M177.793 63.272 C 165.697 70.337,151.570 78.583,146.400 81.597 C 101.295 107.896,72.117 124.966,71.700 125.299 C 70.790 126.025,70.988 274.890,71.900 275.690 C 72.532 276.244,87.021 284.742,107.400 296.511 C 111.580 298.925,118.780 303.102,123.400 305.794 C 128.020 308.486,137.920 314.249,145.400 318.600 C 152.880 322.951,162.150 328.343,166.000 330.583 C 169.850 332.823,177.770 337.409,183.600 340.776 C 189.430 344.142,194.834 347.300,195.609 347.793 C 196.384 348.287,197.749 349.064,198.643 349.520 L 200.268 350.349 219.834 338.934 C 230.595 332.656,245.790 323.782,253.600 319.215 C 261.410 314.649,273.290 307.712,280.000 303.801 C 311.211 285.608,327.842 275.863,328.300 275.499 C 329.210 274.776,329.012 125.910,328.100 125.112 C 327.715 124.776,323.440 122.199,318.600 119.387 C 313.760 116.574,304.220 111.034,297.400 107.074 C 290.580 103.115,280.050 96.999,274.000 93.484 C 267.950 89.969,261.290 86.101,259.200 84.889 C 257.110 83.677,249.010 78.963,241.200 74.414 C 218.817 61.376,204.388 53.004,201.993 51.663 L 199.785 50.428 177.793 63.272 M156.271 95.618 C 167.675 97.143,181.736 104.735,195.903 117.019 C 200.564 121.061,200.181 121.020,203.740 117.868 C 243.235 82.900,272.018 88.914,271.997 132.129 C 271.992 140.367,271.346 146.629,269.536 155.946 C 268.579 160.878,268.093 160.274,275.016 162.753 C 332.812 183.442,331.984 217.964,273.200 238.433 C 269.568 239.698,268.647 240.228,269.024 240.839 C 269.118 240.991,269.563 242.979,270.012 245.258 C 275.364 272.378,271.603 294.214,260.285 301.726 C 247.981 309.893,225.006 301.954,203.604 282.140 C 200.680 279.433,200.632 279.438,196.908 282.833 C 158.966 317.425,128.781 311.186,128.804 268.755 C 128.808 260.032,129.352 255.162,131.867 241.314 C 132.141 239.805,132.676 240.102,124.400 237.168 C 82.078 222.165,70.878 197.206,97.498 177.219 C 105.460 171.240,122.170 163.087,129.872 161.423 C 131.956 160.973,132.080 160.528,131.217 156.564 C 123.846 122.667,131.158 97.979,149.264 95.630 C 152.897 95.159,152.837 95.159,156.271 95.618 M149.476 106.362 C 140.086 108.334,136.512 128.106,141.211 152.079 C 142.340 157.838,142.291 157.725,143.540 157.454 C 151.311 155.768,159.605 154.246,164.704 153.570 C 171.896 152.617,172.448 152.520,173.010 152.104 C 173.235 151.937,174.841 149.910,176.579 147.600 C 180.525 142.355,186.471 135.187,189.836 131.620 C 192.978 128.290,192.984 128.540,189.700 125.715 C 173.446 111.731,158.393 104.489,149.476 106.362 M242.000 106.760 C 232.931 109.245,223.002 115.253,211.326 125.322 C 207.760 128.396,207.754 128.182,211.528 132.347 C 216.015 137.301,221.051 143.387,224.453 147.968 C 227.813 152.493,227.920 152.554,233.600 153.205 C 238.508 153.767,249.214 155.637,254.261 156.814 C 258.539 157.812,258.430 157.899,259.371 152.688 C 261.225 142.418,261.795 135.905,261.459 128.845 C 260.568 110.134,254.563 103.319,242.000 106.760 M196.300 140.332 C 191.623 145.613,187.443 150.777,187.666 150.999 C 187.893 151.227,212.831 151.302,213.057 151.076 C 213.497 150.636,201.364 136.681,200.376 136.491 C 200.059 136.430,198.225 138.158,196.300 140.332 M190.982 162.051 C 178.167 162.506,179.180 162.160,175.776 167.247 C 169.203 177.070,157.600 198.198,157.600 200.345 C 157.600 203.363,176.891 236.890,179.146 237.792 C 181.756 238.835,219.010 238.815,221.736 237.769 C 223.294 237.171,234.450 218.640,240.222 207.063 L 243.580 200.327 242.971 198.863 C 240.226 192.273,229.201 173.088,223.297 164.629 C 221.868 162.581,221.397 162.482,211.841 162.206 C 207.419 162.078,202.990 161.917,202.000 161.849 C 201.010 161.780,196.052 161.871,190.982 162.051 M159.000 165.276 C 152.926 166.317,145.925 167.915,145.479 168.361 C 145.012 168.828,147.124 175.565,150.446 184.200 C 151.597 187.191,151.852 187.048,154.557 181.892 C 155.853 179.422,158.533 174.700,160.514 171.400 C 162.494 168.100,164.177 165.284,164.255 165.142 C 164.588 164.531,163.124 164.569,159.000 165.276 M236.797 164.802 C 236.494 164.989,237.065 166.206,238.501 168.441 C 240.571 171.662,245.028 179.399,247.450 183.974 C 248.082 185.170,248.798 186.211,249.041 186.287 C 249.680 186.490,255.200 170.981,255.200 168.980 C 255.200 167.958,252.887 167.288,243.600 165.620 C 237.260 164.481,237.307 164.487,236.797 164.802 M127.798 173.367 C 107.120 181.087,93.590 191.735,93.604 200.275 C 93.619 209.269,108.571 220.537,130.490 228.073 C 135.009 229.627,134.508 230.110,137.418 221.385 C 138.810 217.213,141.059 211.100,142.415 207.800 C 143.772 204.500,144.971 201.416,145.079 200.947 C 145.196 200.439,144.108 197.207,142.386 192.947 C 140.797 189.016,138.471 182.727,137.216 178.972 C 134.732 171.533,134.580 171.182,133.876 171.238 C 133.614 171.258,130.879 172.216,127.798 173.367 M265.803 171.700 C 265.708 171.975,264.648 175.170,263.448 178.800 C 260.498 187.726,259.173 191.264,256.580 197.143 C 255.246 200.167,255.154 199.710,258.965 209.000 C 260.409 212.520,262.521 218.280,263.660 221.800 C 266.306 229.983,265.894 229.591,270.266 228.088 C 292.282 220.519,307.314 209.187,307.314 200.160 C 307.314 191.734,293.052 180.683,272.576 173.244 C 266.518 171.043,266.065 170.939,265.803 171.700 M205.742 179.034 C 219.545 182.595,226.408 198.425,219.511 210.793 C 209.625 228.522,183.228 224.580,178.973 204.739 C 175.618 189.098,190.258 175.039,205.742 179.034 M150.649 216.071 C 150.136 217.242,148.951 220.540,148.016 223.400 C 147.081 226.260,146.155 229.013,145.958 229.519 C 145.192 231.483,145.494 232.341,147.100 232.765 C 151.711 233.981,163.963 236.170,164.296 235.837 C 164.396 235.737,162.596 232.538,160.296 228.727 C 157.995 224.917,155.253 220.130,154.201 218.089 C 151.832 213.491,151.790 213.467,150.649 216.071 M246.400 218.294 C 245.190 220.650,242.429 225.522,240.265 229.120 C 238.100 232.719,236.427 235.761,236.547 235.880 C 236.997 236.331,254.398 232.895,255.127 232.211 C 255.942 231.447,250.136 213.994,249.071 214.005 C 248.812 214.008,247.610 215.938,246.400 218.294 M142.391 243.824 C 141.595 245.918,140.016 256.302,139.544 262.546 C 138.525 276.041,140.757 287.136,145.438 291.848 C 152.497 298.954,171.441 291.478,191.000 273.867 L 193.000 272.066 190.953 269.933 C 187.787 266.634,181.803 259.542,177.262 253.706 C 172.302 247.332,173.950 248.256,165.388 247.042 C 157.681 245.948,151.913 244.930,146.276 243.666 L 142.751 242.876 142.391 243.824 M256.000 243.228 C 251.746 244.281,242.213 246.042,236.800 246.776 C 227.257 248.068,228.311 247.570,224.484 252.600 C 220.083 258.386,214.899 264.629,211.273 268.508 C 209.663 270.230,208.417 271.855,208.504 272.120 C 209.180 274.185,225.153 285.870,232.323 289.546 C 252.855 300.070,261.585 293.760,261.597 268.390 C 261.602 257.277,259.330 242.567,257.651 242.841 C 257.513 242.863,256.770 243.038,256.000 243.228 M188.008 249.786 C 188.026 250.782,199.718 264.000,200.580 264.000 C 201.331 264.000,213.200 250.442,213.200 249.583 C 213.200 249.438,207.530 249.331,200.600 249.345 C 192.194 249.363,188.003 249.510,188.008 249.786 " stroke="none" fill="#282b33" fill-rule="evenodd"></path></g></svg>