<?xml version="1.0" ?><svg width="124px" height="124px" id="Icons" style="enable-background:new 0 0 32 32;" version="1.1" viewBox="0 0 32 32" xml:space="preserve" xmlns="http://www.w3.org/2000/svg" xmlns:xlink="http://www.w3.org/1999/xlink"><style type="text/css">
	.st0{fill:#FFFFFF;}
	.st1{fill:#3A559F;}
	.st2{fill:#F4F4F4;}
	.st3{fill:#FF0084;}
	.st4{fill:#0063DB;}
	.st5{fill:#00ACED;}
	.st6{fill:#FFEC06;}
	.st7{fill:#FF0000;}
	.st8{fill:#25D366;}
	.st9{fill:#0088FF;}
	.st10{fill:#314358;}
	.st11{fill:#EE6996;}
	.st12{fill:#01AEF3;}
	.st13{fill:#FFFEFF;}
	.st14{fill:#F06A35;}
	.st15{fill:#00ADEF;}
	.st16{fill:#1769FF;}
	.st17{fill:#1AB7EA;}
	.st18{fill:#6001D1;}
	.st19{fill:#E41214;}
	.st20{fill:#05CE78;}
	.st21{fill:#7B519C;}
	.st22{fill:#FF4500;}
	.st23{fill:#00F076;}
	.st24{fill:#FFC900;}
	.st25{fill:#00D6FF;}
	.st26{fill:#FF3A44;}
	.st27{fill:#FF6A36;}
	.st28{fill:#0061FE;}
	.st29{fill:#F7981C;}
	.st30{fill:#EE1B22;}
	.st31{fill:#EF3561;}
	.st32{fill:none;stroke:#FFFFFF;stroke-width:2;stroke-miterlimit:10;}
	.st33{fill:#0097D3;}
	.st34{fill:#01308A;}
	.st35{fill:#019CDE;}
	.st36{fill:#FFD049;}
	.st37{fill:#16A05D;}
	.st38{fill:#4486F4;}
	.st39{fill:none;}
	.st40{fill:#34A853;}
	.st41{fill:#4285F4;}
	.st42{fill:#FBBC05;}
	.st43{fill:#EA4335;}
</style><path class="st22" d="M32,15.5c0-2.5-2-4.5-4.5-4.5c-1.1,0-2.1,0.4-2.9,1.1c-2-1.1-4.5-1.8-7-2l1.9-3.7L22,7.6c0,0.1,0,0.2,0,0.4  c0,1.7,1.3,3,3,3s3-1.3,3-3s-1.3-3-3-3c-0.8,0-1.5,0.3-2.1,0.8l-3.5-1.7c-0.5-0.2-1.1,0-1.3,0.4L15.4,10c-2.9,0.1-5.7,0.8-7.9,2.1  C6.6,11.4,5.6,11,4.5,11C2,11,0,13,0,15.5c0,1.5,0.8,3,2,3.8c0,0.3,0,0.5,0,0.7c0,5.5,6.3,10,14,10s14-4.5,14-10c0-0.2,0-0.5,0-0.7  C31.2,18.5,32,17,32,15.5z"/><path class="st0" d="M20.4,24.2C20,24.5,18.5,25,16,25s-4-0.5-4.4-0.8c-0.4-0.3-1.1-0.3-1.4,0.2c-0.3,0.4-0.3,1.1,0.2,1.4  C11.5,26.7,14,27,16,27s4.5-0.3,5.6-1.2c0.4-0.3,0.5-1,0.2-1.4S20.8,23.9,20.4,24.2z"/><circle class="st0" cx="11" cy="18" r="3"/><circle class="st0" cx="21" cy="18" r="3"/></svg>