<svg width="124px" height="124px" fill="none" viewBox="0 0 32 32" xmlns="http://www.w3.org/2000/svg"><path d="m16 2c-7.72188 0-14 6.27812-14 14 0 7.7219 6.27812 14 14 14 7.7219 0 14-6.2781 14-14 0-7.72188-6.2781-14-14-14z" fill="#f48024"/><g fill="#fff"><path d="m19.5405 18.3626-7.4323-1.0743.2576-1.6278 7.2679 1.3976z"/><path d="m19.672 16.6306-6.5772-3.0694.6029-1.3154 6.5772 3.0694z"/><path d="m20.549 14.9863-5.5907-4.6589.9318-1.09618 5.5907 4.65888z"/><path d="m17.37 7.80615 1.151-.87695 4.33 5.8099-1.151.877z"/><path d="m19.5624 20.5221h-7.6734v-1.6443h7.6734z"/><path d="m20.6586 17.2334v4.3848h-9.8659v-4.3848h-1.64426v6.0291h13.15446v-6.0291z"/></g></svg>